<svg xmlns="http://www.w3.org/2000/svg" xmlns:xlink="http://www.w3.org/1999/xlink" xmlns:lucid="lucid" width="3456" height="1360"><g transform="translate(0 0)" lucid:page-tab-id="0_0"><path d="M0 0h1760v1360H0z" fill="#fff"/><path d="M120 256h580v360H120z" fill="#fff"/><path d="M120 256h580v360H120zM120 296h580M180 296v320M440 296v320" stroke="#000" stroke-width="2" fill="none"/><use xlink:href="#a" transform="matrix(1,0,0,1,130,256) translate(241.075 23.6)"/><use xlink:href="#b" transform="matrix(1,0,0,1,125,298.5) translate(13 17.1)"/><use xlink:href="#c" transform="matrix(1,0,0,1,185,298.5) translate(0 17.1)"/><use xlink:href="#d" transform="matrix(1,0,0,1,445,298.5) translate(0 17.1)"/><use xlink:href="#e" transform="matrix(1,0,0,1,185,330.5) translate(0 17.1)"/><use xlink:href="#f" transform="matrix(1,0,0,1,445,330.5) translate(0 17.1)"/><use xlink:href="#g" transform="matrix(1,0,0,1,185,362.5) translate(0 17.1)"/><use xlink:href="#h" transform="matrix(1,0,0,1,445,362.5) translate(0 17.1)"/><use xlink:href="#i" transform="matrix(1,0,0,1,185,394.5) translate(0 17.1)"/><use xlink:href="#f" transform="matrix(1,0,0,1,445,394.5) translate(0 17.1)"/><use xlink:href="#j" transform="matrix(1,0,0,1,185,426.5) translate(0 17.1)"/><use xlink:href="#f" transform="matrix(1,0,0,1,445,426.5) translate(0 17.1)"/><use xlink:href="#k" transform="matrix(1,0,0,1,185,458.5) translate(0 17.1)"/><use xlink:href="#l" transform="matrix(1,0,0,1,445,458.5) translate(0 17.1)"/><use xlink:href="#m" transform="matrix(1,0,0,1,185,490.5) translate(0 17.1)"/><use xlink:href="#n" transform="matrix(1,0,0,1,445,490.5) translate(0 17.1)"/><use xlink:href="#o" transform="matrix(1,0,0,1,185,522.5) translate(0 17.1)"/><use xlink:href="#p" transform="matrix(1,0,0,1,445,522.5) translate(0 17.1)"/><use xlink:href="#q" transform="matrix(1,0,0,1,185,554.5) translate(0 17.1)"/><use xlink:href="#n" transform="matrix(1,0,0,1,445,554.5) translate(0 17.1)"/><use xlink:href="#r" transform="matrix(1,0,0,1,185,586.5) translate(0 17.1)"/><use xlink:href="#s" transform="matrix(1,0,0,1,445,586.5) translate(0 17.1)"/><path d="M1640 380h500v392h-500z" fill="#fff"/><path d="M1640 380h500v392h-500zM1640 420h500M1700 420v352M1920 420v352" stroke="#000" stroke-width="2" fill="none"/><use xlink:href="#t" transform="matrix(1,0,0,1,1650,380) translate(216.1 23.6)"/><use xlink:href="#u" transform="matrix(1,0,0,1,1645,422.5) translate(13 17.1)"/><use xlink:href="#v" transform="matrix(1,0,0,1,1705,422.5) translate(0 17.1)"/><use xlink:href="#w" transform="matrix(1,0,0,1,1925,422.5) translate(0 17.1)"/><use xlink:href="#x" transform="matrix(1,0,0,1,1705,454.5) translate(0 17.1)"/><use xlink:href="#y" transform="matrix(1,0,0,1,1925,454.5) translate(0 17.1)"/><use xlink:href="#z" transform="matrix(1,0,0,1,1705,486.5) translate(0 17.1)"/><use xlink:href="#A" transform="matrix(1,0,0,1,1925,486.5) translate(0 17.1)"/><use xlink:href="#B" transform="matrix(1,0,0,1,1705,518.5) translate(0 17.1)"/><use xlink:href="#y" transform="matrix(1,0,0,1,1925,518.5) translate(0 17.1)"/><use xlink:href="#C" transform="matrix(1,0,0,1,1705,550.5) translate(0 17.1)"/><use xlink:href="#y" transform="matrix(1,0,0,1,1925,550.5) translate(0 17.1)"/><use xlink:href="#D" transform="matrix(1,0,0,1,1705,582.5) translate(0 17.1)"/><use xlink:href="#E" transform="matrix(1,0,0,1,1925,582.5) translate(0 17.1)"/><use xlink:href="#F" transform="matrix(1,0,0,1,1705,614.5) translate(0 17.1)"/><use xlink:href="#G" transform="matrix(1,0,0,1,1925,614.5) translate(0 17.1)"/><use xlink:href="#H" transform="matrix(1,0,0,1,1705,646.5) translate(0 17.1)"/><use xlink:href="#I" transform="matrix(1,0,0,1,1925,646.5) translate(0 17.1)"/><use xlink:href="#J" transform="matrix(1,0,0,1,1705,678.5) translate(0 17.1)"/><use xlink:href="#G" transform="matrix(1,0,0,1,1925,678.5) translate(0 17.1)"/><use xlink:href="#K" transform="matrix(1,0,0,1,1705,710.5) translate(0 17.1)"/><use xlink:href="#s" transform="matrix(1,0,0,1,1925,710.5) translate(0 17.1)"/><use xlink:href="#L" transform="matrix(1,0,0,1,1645,742.5) translate(13.524999999999999 17.1)"/><use xlink:href="#M" transform="matrix(1,0,0,1,1705,742.5) translate(0 17.1)"/><use xlink:href="#N" transform="matrix(1,0,0,1,1925,742.5) translate(0 17.1)"/><path d="M880 620h480v328H880z" fill="#fff"/><path d="M880 620h480v328H880zM880 660h480M940 660v288M1150 660v288" stroke="#000" stroke-width="2" fill="none"/><use xlink:href="#O" transform="matrix(1,0,0,1,890,620) translate(213.575 23.6)"/><use xlink:href="#u" transform="matrix(1,0,0,1,885,662.5) translate(13 17.1)"/><use xlink:href="#P" transform="matrix(1,0,0,1,945,662.5) translate(0 17.1)"/><use xlink:href="#w" transform="matrix(1,0,0,1,1155,662.5) translate(0 17.1)"/><use xlink:href="#Q" transform="matrix(1,0,0,1,885,694.5) translate(13.524999999999999 17.1)"/><use xlink:href="#R" transform="matrix(1,0,0,1,945,694.5) translate(0 17.1)"/><use xlink:href="#w" transform="matrix(1,0,0,1,1155,694.5) translate(0 17.1)"/><use xlink:href="#Q" transform="matrix(1,0,0,1,885,726.5) translate(13.524999999999999 17.1)"/><use xlink:href="#v" transform="matrix(1,0,0,1,945,726.5) translate(0 17.1)"/><use xlink:href="#w" transform="matrix(1,0,0,1,1155,726.5) translate(0 17.1)"/><use xlink:href="#S" transform="matrix(1,0,0,1,945,758.5) translate(0 17.1)"/><use xlink:href="#T" transform="matrix(1,0,0,1,1155,758.5) translate(0 17.1)"/><use xlink:href="#U" transform="matrix(1,0,0,1,945,790.5) translate(0 17.1)"/><use xlink:href="#T" transform="matrix(1,0,0,1,1155,790.5) translate(0 17.1)"/><use xlink:href="#V" transform="matrix(1,0,0,1,945,822.5) translate(0 17.1)"/><use xlink:href="#T" transform="matrix(1,0,0,1,1155,822.5) translate(0 17.1)"/><use xlink:href="#W" transform="matrix(1,0,0,1,945,854.5) translate(0 17.1)"/><use xlink:href="#T" transform="matrix(1,0,0,1,1155,854.5) translate(0 17.1)"/><use xlink:href="#X" transform="matrix(1,0,0,1,945,886.5) translate(0 17.1)"/><use xlink:href="#Y" transform="matrix(1,0,0,1,1155,886.5) translate(0 17.1)"/><use xlink:href="#Z" transform="matrix(1,0,0,1,945,918.5) translate(0 17.1)"/><use xlink:href="#Z" transform="matrix(1,0,0,1,1155,918.5) translate(0 17.1)"/><path d="M700 344h90v364h90" stroke="#000" stroke-width="2" fill="none"/><path fill="#fff"/><path d="M711 354h-2v-20h2z"/><path fill="#fff"/><path d="M721 354h-2v-20h2zM880 698v1.12L862.24 708l17.76 8.88V718l-.45.9-21.8-10.9 21.8-10.9z"/><path d="M860 708l-.5 3.16-1.43 2.75-2.16 2.17-2.74 1.42-3.16.5-3.16-.5-2.75-1.43-2.17-2.16-1.42-2.74-.5-3.16.5-3.16 1.43-2.75 2.16-2.17 2.74-1.42 3.16-.5 3.16.5 2.75 1.43 2.17 2.16 1.42 2.74.5 3.16z" fill="#fff"/><path d="M853.48 697.55l3.02 1.56 2.4 2.4 1.55 3.02.54 3.32-1 .16 1 .16-.55 3.32-1.56 3.02-2.4 2.4-3.02 1.55-3.48.56-3.48-.55-3.02-1.56-2.4-2.4-1.55-3.02L839 708l.55-3.48 1.56-3.02 2.4-2.4 3.02-1.55L850 697zm-6.32 1.92l-2.47 1.28-1.95 1.94-1.28 2.46L841 708l.47 2.84 1.28 2.47 1.94 1.95 2.46 1.28 2.84.46 2.84-.47 2.47-1.28 1.95-1.94 1.28-2.46.46-2.84-.47-2.84-1.28-2.47-1.94-1.95-2.46-1.28L850 699z"/><path d="M1360 676h140V400h140" stroke="#000" stroke-width="2" fill="none"/><path d="M1390 676l-15.15 14.85L1360 676l14.85-14.85z"/><path d="M1391.43 676l-16.6 16.26L1360 677.4v-2.8l14.84-14.86zm-30.02 0l13.46 13.44 13.7-13.44-13.7-13.44z"/><path/><path d="M1620 960h460v200h-460z" fill="#fff"/><path d="M1620 960h460v200h-460zM1620 1000h460M1680 1000v160M1880 1000v160" stroke="#000" stroke-width="2" fill="none"/><use xlink:href="#aa" transform="matrix(1,0,0,1,1630,960) translate(166.125 23.6)"/><use xlink:href="#u" transform="matrix(1,0,0,1,1625,1002.5) translate(13 17.1)"/><use xlink:href="#ab" transform="matrix(1,0,0,1,1685,1002.5) translate(0 17.1)"/><use xlink:href="#w" transform="matrix(1,0,0,1,1885,1002.5) translate(0 17.1)"/><use xlink:href="#ac" transform="matrix(1,0,0,1,1685,1034.5) translate(0 17.1)"/><use xlink:href="#ad" transform="matrix(1,0,0,1,1885,1034.5) translate(0 17.1)"/><use xlink:href="#ae" transform="matrix(1,0,0,1,1685,1066.5) translate(0 17.1)"/><use xlink:href="#ad" transform="matrix(1,0,0,1,1885,1066.5) translate(0 17.1)"/><use xlink:href="#af" transform="matrix(1,0,0,1,1685,1098.5) translate(0 17.1)"/><use xlink:href="#ad" transform="matrix(1,0,0,1,1885,1098.5) translate(0 17.1)"/><use xlink:href="#ag" transform="matrix(1,0,0,1,1685,1130.5) translate(0 17.1)"/><use xlink:href="#ah" transform="matrix(1,0,0,1,1885,1130.5) translate(0 17.1)"/><path d="M2260 480h500v168h-500z" fill="#fff"/><path d="M2260 480h500v168h-500zM2260 520h500M2320 520v128M2540 520v128" stroke="#000" stroke-width="2" fill="none"/><use xlink:href="#ai" transform="matrix(1,0,0,1,2270,480) translate(148.675 23.6)"/><use xlink:href="#u" transform="matrix(1,0,0,1,2265,522.5) translate(13 17.1)"/><use xlink:href="#ab" transform="matrix(1,0,0,1,2325,522.5) translate(0 17.1)"/><use xlink:href="#w" transform="matrix(1,0,0,1,2545,522.5) translate(0 17.1)"/><use xlink:href="#aj" transform="matrix(1,0,0,1,2325,554.5) translate(0 17.1)"/><use xlink:href="#ak" transform="matrix(1,0,0,1,2545,554.5) translate(0 17.1)"/><use xlink:href="#al" transform="matrix(1,0,0,1,2325,586.5) translate(0 17.1)"/><use xlink:href="#ak" transform="matrix(1,0,0,1,2545,586.5) translate(0 17.1)"/><use xlink:href="#am" transform="matrix(1,0,0,1,2325,618.5) translate(0 17.1)"/><use xlink:href="#an" transform="matrix(1,0,0,1,2545,618.5) translate(0 17.1)"/><path d="M140 860h560v168H140z" fill="#fff"/><path d="M140 860h560v168H140zM140 900h560M200 900v128M450 900v128" stroke="#000" stroke-width="2" fill="none"/><use xlink:href="#ao" transform="matrix(1,0,0,1,150,860) translate(164.15 23.6)"/><use xlink:href="#u" transform="matrix(1,0,0,1,145,902.5) translate(13 17.1)"/><use xlink:href="#c" transform="matrix(1,0,0,1,205,902.5) translate(0 17.1)"/><use xlink:href="#w" transform="matrix(1,0,0,1,455,902.5) translate(0 17.1)"/><use xlink:href="#aj" transform="matrix(1,0,0,1,205,934.5) translate(0 17.1)"/><use xlink:href="#ak" transform="matrix(1,0,0,1,455,934.5) translate(0 17.1)"/><use xlink:href="#al" transform="matrix(1,0,0,1,205,966.5) translate(0 17.1)"/><use xlink:href="#ak" transform="matrix(1,0,0,1,455,966.5) translate(0 17.1)"/><use xlink:href="#am" transform="matrix(1,0,0,1,205,998.5) translate(0 17.1)"/><use xlink:href="#ap" transform="matrix(1,0,0,1,455,998.5) translate(0 17.1)"/><path d="M140 916H80V312h40" stroke="#000" stroke-width="2" fill="none"/><path fill="#fff"/><path d="M121 926h-2v-20h2zM120 302v1.12L102.24 312l17.76 8.88V322l-.45.9-21.8-10.9 21.8-10.9z"/><path d="M1640 436h-70v304h-210" stroke="#000" stroke-width="2" fill="none"/><path fill="#fff"/><path d="M1621 446h-2v-20h2zM1382.24 740l-21.8 10.9-.44-.9v-1.12l17.76-8.88-17.76-8.88V730l.45-.9z"/><path d="M2200 860h480v328h-480z" fill="#fff"/><path d="M2200 860h480v328h-480zM2200 900h480M2260 900v288M2470 900v288" stroke="#000" stroke-width="2" fill="none"/><use xlink:href="#aq" transform="matrix(1,0,0,1,2210,860) translate(190.05 23.6)"/><use xlink:href="#u" transform="matrix(1,0,0,1,2205,902.5) translate(13 17.1)"/><use xlink:href="#ar" transform="matrix(1,0,0,1,2265,902.5) translate(0 17.1)"/><use xlink:href="#w" transform="matrix(1,0,0,1,2475,902.5) translate(0 17.1)"/><use xlink:href="#x" transform="matrix(1,0,0,1,2265,934.5) translate(0 17.1)"/><use xlink:href="#y" transform="matrix(1,0,0,1,2475,934.5) translate(0 17.1)"/><use xlink:href="#z" transform="matrix(1,0,0,1,2265,966.5) translate(0 17.1)"/><use xlink:href="#A" transform="matrix(1,0,0,1,2475,966.5) translate(0 17.1)"/><use xlink:href="#B" transform="matrix(1,0,0,1,2265,998.5) translate(0 17.1)"/><use xlink:href="#y" transform="matrix(1,0,0,1,2475,998.5) translate(0 17.1)"/><use xlink:href="#C" transform="matrix(1,0,0,1,2265,1030.5) translate(0 17.1)"/><use xlink:href="#y" transform="matrix(1,0,0,1,2475,1030.5) translate(0 17.1)"/><use xlink:href="#as" transform="matrix(1,0,0,1,2265,1062.5) translate(0 17.1)"/><use xlink:href="#at" transform="matrix(1,0,0,1,2475,1062.5) translate(0 17.1)"/><use xlink:href="#au" transform="matrix(1,0,0,1,2265,1094.5) translate(0 17.1)"/><use xlink:href="#ap" transform="matrix(1,0,0,1,2475,1094.5) translate(0 17.1)"/><use xlink:href="#av" transform="matrix(1,0,0,1,2265,1126.5) translate(0 17.1)"/><use xlink:href="#aw" transform="matrix(1,0,0,1,2475,1126.5) translate(0 17.1)"/><use xlink:href="#F" transform="matrix(1,0,0,1,2265,1158.5) translate(0 17.1)"/><use xlink:href="#G" transform="matrix(1,0,0,1,2475,1158.5) translate(0 17.1)"/><path d="M860 40h320v200H860z" fill="#fff"/><path d="M860 40h320v200H860zM860 80h320M920 80v160M1050 80v160" stroke="#000" stroke-width="2" fill="none"/><use xlink:href="#ax" transform="matrix(1,0,0,1,870,40) translate(110.525 23.6)"/><use xlink:href="#u" transform="matrix(1,0,0,1,865,82.5) translate(13 17.1)"/><use xlink:href="#ay" transform="matrix(1,0,0,1,925,82.5) translate(0 17.1)"/><use xlink:href="#w" transform="matrix(1,0,0,1,1055,82.5) translate(0 17.1)"/><use xlink:href="#Q" transform="matrix(1,0,0,1,865,114.5) translate(13.524999999999999 17.1)"/><use xlink:href="#R" transform="matrix(1,0,0,1,925,114.5) translate(0 17.1)"/><use xlink:href="#w" transform="matrix(1,0,0,1,1055,114.5) translate(0 17.1)"/><use xlink:href="#Q" transform="matrix(1,0,0,1,865,146.5) translate(13.524999999999999 17.1)"/><use xlink:href="#v" transform="matrix(1,0,0,1,925,146.5) translate(0 17.1)"/><use xlink:href="#w" transform="matrix(1,0,0,1,1055,146.5) translate(0 17.1)"/><use xlink:href="#az" transform="matrix(1,0,0,1,865,178.5) translate(13.524999999999999 17.1)"/><use xlink:href="#aA" transform="matrix(1,0,0,1,925,178.5) translate(0 17.1)"/><use xlink:href="#an" transform="matrix(1,0,0,1,1055,178.5) translate(0 17.1)"/><use xlink:href="#aB" transform="matrix(1,0,0,1,925,210.5) translate(0 17.1)"/><use xlink:href="#aC" transform="matrix(1,0,0,1,1055,210.5) translate(0 17.1)"/><path d="M1180 192h40v238H840v246h40" stroke="#000" stroke-width="2" fill="none"/><path fill="#fff"/><path d="M1191 202h-2v-20h2z"/><path fill="#fff"/><path d="M1201 202h-2v-20h2z"/><path fill="#fff"/><path d="M871 686h-2v-20h2z"/><path fill="#fff"/><path d="M861 686h-2v-20h2z"/><path d="M1180 160h1000v276h-40" stroke="#000" stroke-width="2" fill="none"/><path d="M1202.24 160l-21.8 10.9-.44-.9v-1.12l17.76-8.88-17.76-8.88V150l.45-.9z"/><path d="M1220 160l-.5 3.16-1.43 2.75-2.16 2.17-2.74 1.42-3.16.5-3.16-.5-2.75-1.43-2.17-2.16-1.42-2.74-.5-3.16.5-3.16 1.43-2.75 2.16-2.17 2.74-1.42 3.16-.5 3.16.5 2.75 1.43 2.17 2.16 1.42 2.74.5 3.16z" fill="#fff"/><path d="M1213.48 149.55l3.02 1.56 2.4 2.4 1.55 3.02.54 3.32-1 .16 1 .16-.55 3.32-1.56 3.02-2.4 2.4-3.02 1.55-3.48.56-3.48-.55-3.02-1.56-2.4-2.4-1.55-3.02-.56-3.48.55-3.48 1.56-3.02 2.4-2.4 3.02-1.55 3.48-.56zm-6.32 1.92l-2.47 1.28-1.95 1.94-1.28 2.46-.46 2.84.47 2.84 1.28 2.47 1.94 1.95 2.46 1.28 2.84.46 2.84-.47 2.47-1.28 1.95-1.94 1.28-2.46.46-2.84-.47-2.84-1.28-2.47-1.94-1.95-2.46-1.28-2.84-.46z"/><path fill="#fff"/><path d="M2151 446h-2v-20h2z"/><path fill="#fff"/><path d="M2161 446h-2v-20h2z"/><path d="M2200 916h-30V756h-30" stroke="#000" stroke-width="2" fill="none"/><path fill="#fff"/><path d="M2181 926h-2v-20h2zM2162.24 756l-21.8 10.9-.44-.9v-1.12l17.76-8.88-17.76-8.88V746l.45-.9z"/><path d="M860 160h-79.5v116H701" stroke="#000" stroke-width="2" fill="none"/><path fill="#fff"/><path d="M841 170h-2v-20h2zM723.24 276l-21.8 10.9-.9-1.8 18.22-9.1-18.2-9.1.9-1.8z"/><path d="M2260 536h-60V436h-60" stroke="#000" stroke-width="2" fill="none"/><path fill="#fff"/><path d="M2241 546h-2v-20h2z"/><path fill="#fff"/><path d="M2161 446h-2v-20h2z"/><path d="M1620 1016h-50V436h70" stroke="#000" stroke-width="2" fill="none"/><path fill="#fff"/><path d="M1601 1026h-2v-20h2z"/><path fill="#fff"/><path d="M1621 446h-2v-20h2z"/><defs><path d="M212-179c-10-28-35-45-73-45-59 0-87 40-87 99 0 60 29 101 89 101 43 0 62-24 78-52l27 14C228-24 195 4 139 4 59 4 22-46 18-125c-6-104 99-153 187-111 19 9 31 26 39 46" id="aD"/><path d="M84 4C-5 8 30-112 23-190h32v120c0 31 7 50 39 49 72-2 45-101 50-169h31l1 190h-30c-1-10 1-25-2-33-11 22-28 36-60 37" id="aE"/><path d="M135-143c-3-34-86-38-87 0 15 53 115 12 119 90S17 21 10-45l28-5c4 36 97 45 98 0-10-56-113-15-118-90-4-57 82-63 122-42 12 7 21 19 24 35" id="aF"/><path d="M59-47c-2 24 18 29 38 22v24C64 9 27 4 27-40v-127H5v-23h24l9-43h21v43h35v23H59v120" id="aG"/><path d="M100-194c62-1 85 37 85 99 1 63-27 99-86 99S16-35 15-95c0-66 28-99 85-99zM99-20c44 1 53-31 53-75 0-43-8-75-51-75s-53 32-53 75 10 74 51 75" id="aH"/><path d="M210-169c-67 3-38 105-44 169h-31v-121c0-29-5-50-35-48C34-165 62-65 56 0H25l-1-190h30c1 10-1 24 2 32 10-44 99-50 107 0 11-21 27-35 58-36 85-2 47 119 55 194h-31v-121c0-29-5-49-35-48" id="aI"/><path d="M100-194c63 0 86 42 84 106H49c0 40 14 67 53 68 26 1 43-12 49-29l28 8c-11 28-37 45-77 45C44 4 14-33 15-96c1-61 26-98 85-98zm52 81c6-60-76-77-97-28-3 7-6 17-6 28h103" id="aJ"/><path d="M114-163C36-179 61-72 57 0H25l-1-190h30c1 12-1 29 2 39 6-27 23-49 58-41v29" id="aK"/><g id="a"><use transform="matrix(0.05,0,0,0.05,0,0)" xlink:href="#aD"/><use transform="matrix(0.05,0,0,0.05,12.950000000000001,0)" xlink:href="#aE"/><use transform="matrix(0.05,0,0,0.05,22.950000000000003,0)" xlink:href="#aF"/><use transform="matrix(0.05,0,0,0.05,31.950000000000003,0)" xlink:href="#aG"/><use transform="matrix(0.05,0,0,0.05,36.95,0)" xlink:href="#aH"/><use transform="matrix(0.05,0,0,0.05,46.95,0)" xlink:href="#aI"/><use transform="matrix(0.05,0,0,0.05,61.900000000000006,0)" xlink:href="#aJ"/><use transform="matrix(0.05,0,0,0.05,71.9,0)" xlink:href="#aK"/></g><path d="M30-248c87 1 191-15 191 75 0 78-77 80-158 76V0H30v-248zm33 125c57 0 124 11 124-50 0-59-68-47-124-48v98" id="aL"/><path d="M194 0L95-120 63-95V0H30v-248h33v124l119-124h40L117-140 236 0h-42" id="aM"/><g id="b"><use transform="matrix(0.05,0,0,0.05,0,0)" xlink:href="#aL"/><use transform="matrix(0.05,0,0,0.05,12,0)" xlink:href="#aM"/></g><path d="M96-169c-40 0-48 33-48 73s9 75 48 75c24 0 41-14 43-38l32 2c-6 37-31 61-74 61-59 0-76-41-82-99-10-93 101-131 147-64 4 7 5 14 7 22l-32 3c-4-21-16-35-41-35" id="aN"/><path d="M-5 72V49h209v23H-5" id="aO"/><path d="M24-231v-30h32v30H24zM24 0v-190h32V0H24" id="aP"/><path d="M85-194c31 0 48 13 60 33l-1-100h32l1 261h-30c-2-10 0-23-3-31C134-8 116 4 85 4 32 4 16-35 15-94c0-66 23-100 70-100zm9 24c-40 0-46 34-46 75 0 40 6 74 45 74 42 0 51-32 51-76 0-42-9-74-50-73" id="aQ"/><g id="c"><use transform="matrix(0.05,0,0,0.05,0,0)" xlink:href="#aN"/><use transform="matrix(0.05,0,0,0.05,9,0)" xlink:href="#aE"/><use transform="matrix(0.05,0,0,0.05,19,0)" xlink:href="#aF"/><use transform="matrix(0.05,0,0,0.05,28,0)" xlink:href="#aG"/><use transform="matrix(0.05,0,0,0.05,33,0)" xlink:href="#aH"/><use transform="matrix(0.05,0,0,0.05,43,0)" xlink:href="#aI"/><use transform="matrix(0.05,0,0,0.05,57.95,0)" xlink:href="#aJ"/><use transform="matrix(0.05,0,0,0.05,67.95,0)" xlink:href="#aK"/><use transform="matrix(0.05,0,0,0.05,73.9,0)" xlink:href="#aO"/><use transform="matrix(0.05,0,0,0.05,83.9,0)" xlink:href="#aP"/><use transform="matrix(0.05,0,0,0.05,87.85000000000001,0)" xlink:href="#aQ"/></g><path d="M117-194c89-4 53 116 60 194h-32v-121c0-31-8-49-39-48C34-167 62-67 57 0H25l-1-190h30c1 10-1 24 2 32 11-22 29-35 61-36" id="aR"/><g id="d"><use transform="matrix(0.05,0,0,0.05,0,0)" xlink:href="#aP"/><use transform="matrix(0.05,0,0,0.05,3.95,0)" xlink:href="#aR"/><use transform="matrix(0.05,0,0,0.05,13.949999999999998,0)" xlink:href="#aG"/></g><path d="M141-36C126-15 110 5 73 4 37 3 15-17 15-53c-1-64 63-63 125-63 3-35-9-54-41-54-24 1-41 7-42 31l-33-3c5-37 33-52 76-52 45 0 72 20 72 64v82c-1 20 7 32 28 27v20c-31 9-61-2-59-35zM48-53c0 20 12 33 32 33 41-3 63-29 60-74-43 2-92-5-92 41" id="aS"/><path d="M24 0v-261h32V0H24" id="aT"/><g id="e"><use transform="matrix(0.05,0,0,0.05,0,0)" xlink:href="#aJ"/><use transform="matrix(0.05,0,0,0.05,10,0)" xlink:href="#aI"/><use transform="matrix(0.05,0,0,0.05,24.950000000000003,0)" xlink:href="#aS"/><use transform="matrix(0.05,0,0,0.05,34.95,0)" xlink:href="#aP"/><use transform="matrix(0.05,0,0,0.05,38.900000000000006,0)" xlink:href="#aT"/></g><path d="M108 0H70L1-190h34L89-25l56-165h34" id="aU"/><path d="M106-169C34-169 62-67 57 0H25v-261h32l-1 103c12-21 28-36 61-36 89 0 53 116 60 194h-32v-121c2-32-8-49-39-48" id="aV"/><path d="M87 75C49 33 22-17 22-94c0-76 28-126 65-167h31c-38 41-64 92-64 168S80 34 118 75H87" id="aW"/><path d="M54-142c48-35 137-8 131 61C196 18 31 33 14-55l32-4c7 23 22 37 52 37 35-1 51-22 54-58 4-55-73-65-99-34H22l8-134h141v27H59" id="aX"/><path d="M101-251c68 0 85 55 85 127S166 4 100 4C33 4 14-52 14-124c0-73 17-127 87-127zm-1 229c47 0 54-49 54-102s-4-102-53-102c-51 0-55 48-55 102 0 53 5 102 54 102" id="aY"/><path d="M33-261c38 41 65 92 65 168S71 34 33 75H2C39 34 66-17 66-93S39-220 2-261h31" id="aZ"/><g id="f"><use transform="matrix(0.05,0,0,0.05,0,0)" xlink:href="#aU"/><use transform="matrix(0.05,0,0,0.05,9,0)" xlink:href="#aS"/><use transform="matrix(0.05,0,0,0.05,19,0)" xlink:href="#aK"/><use transform="matrix(0.05,0,0,0.05,24.95,0)" xlink:href="#aN"/><use transform="matrix(0.05,0,0,0.05,33.95,0)" xlink:href="#aV"/><use transform="matrix(0.05,0,0,0.05,43.95,0)" xlink:href="#aS"/><use transform="matrix(0.05,0,0,0.05,53.95,0)" xlink:href="#aK"/><use transform="matrix(0.05,0,0,0.05,59.900000000000006,0)" xlink:href="#aW"/><use transform="matrix(0.05,0,0,0.05,65.85000000000001,0)" xlink:href="#aX"/><use transform="matrix(0.05,0,0,0.05,75.85000000000001,0)" xlink:href="#aY"/><use transform="matrix(0.05,0,0,0.05,85.85000000000001,0)" xlink:href="#aZ"/></g><path d="M115-194c55 1 70 41 70 98S169 2 115 4C84 4 66-9 55-30l1 105H24l-1-265h31l2 30c10-21 28-34 59-34zm-8 174c40 0 45-34 45-75s-6-73-45-74c-42 0-51 32-51 76 0 43 10 73 51 73" id="ba"/><path d="M206 0h-36l-40-164L89 0H53L-1-190h32L70-26l43-164h34l41 164 42-164h31" id="bb"/><g id="g"><use transform="matrix(0.05,0,0,0.05,0,0)" xlink:href="#ba"/><use transform="matrix(0.05,0,0,0.05,10,0)" xlink:href="#aS"/><use transform="matrix(0.05,0,0,0.05,20,0)" xlink:href="#aF"/><use transform="matrix(0.05,0,0,0.05,29,0)" xlink:href="#aF"/><use transform="matrix(0.05,0,0,0.05,38,0)" xlink:href="#bb"/><use transform="matrix(0.05,0,0,0.05,50.95,0)" xlink:href="#aH"/><use transform="matrix(0.05,0,0,0.05,60.95,0)" xlink:href="#aK"/><use transform="matrix(0.05,0,0,0.05,66.9,0)" xlink:href="#aQ"/></g><path d="M101-251c82-7 93 87 43 132L82-64C71-53 59-42 53-27h129V0H18c2-99 128-94 128-182 0-28-16-43-45-43s-46 15-49 41l-32-3c6-41 34-60 81-64" id="bc"/><g id="h"><use transform="matrix(0.05,0,0,0.05,0,0)" xlink:href="#aU"/><use transform="matrix(0.05,0,0,0.05,9,0)" xlink:href="#aS"/><use transform="matrix(0.05,0,0,0.05,19,0)" xlink:href="#aK"/><use transform="matrix(0.05,0,0,0.05,24.95,0)" xlink:href="#aN"/><use transform="matrix(0.05,0,0,0.05,33.95,0)" xlink:href="#aV"/><use transform="matrix(0.05,0,0,0.05,43.95,0)" xlink:href="#aS"/><use transform="matrix(0.05,0,0,0.05,53.95,0)" xlink:href="#aK"/><use transform="matrix(0.05,0,0,0.05,59.900000000000006,0)" xlink:href="#aW"/><use transform="matrix(0.05,0,0,0.05,65.85000000000001,0)" xlink:href="#bc"/><use transform="matrix(0.05,0,0,0.05,75.85000000000001,0)" xlink:href="#aY"/><use transform="matrix(0.05,0,0,0.05,85.85000000000001,0)" xlink:href="#aY"/><use transform="matrix(0.05,0,0,0.05,95.85000000000001,0)" xlink:href="#aZ"/></g><path d="M101-234c-31-9-42 10-38 44h38v23H63V0H32v-167H5v-23h27c-7-52 17-82 69-68v24" id="bd"/><g id="i"><use transform="matrix(0.05,0,0,0.05,0,0)" xlink:href="#bd"/><use transform="matrix(0.05,0,0,0.05,5,0)" xlink:href="#aP"/><use transform="matrix(0.05,0,0,0.05,8.95,0)" xlink:href="#aK"/><use transform="matrix(0.05,0,0,0.05,14.899999999999999,0)" xlink:href="#aF"/><use transform="matrix(0.05,0,0,0.05,23.9,0)" xlink:href="#aG"/><use transform="matrix(0.05,0,0,0.05,28.899999999999995,0)" xlink:href="#aO"/><use transform="matrix(0.05,0,0,0.05,38.9,0)" xlink:href="#aR"/><use transform="matrix(0.05,0,0,0.05,48.9,0)" xlink:href="#aS"/><use transform="matrix(0.05,0,0,0.05,58.900000000000006,0)" xlink:href="#aI"/><use transform="matrix(0.05,0,0,0.05,73.85,0)" xlink:href="#aJ"/></g><g id="j"><use transform="matrix(0.05,0,0,0.05,0,0)" xlink:href="#aT"/><use transform="matrix(0.05,0,0,0.05,3.95,0)" xlink:href="#aS"/><use transform="matrix(0.05,0,0,0.05,13.949999999999998,0)" xlink:href="#aF"/><use transform="matrix(0.05,0,0,0.05,22.95,0)" xlink:href="#aG"/><use transform="matrix(0.05,0,0,0.05,27.950000000000003,0)" xlink:href="#aO"/><use transform="matrix(0.05,0,0,0.05,37.95,0)" xlink:href="#aR"/><use transform="matrix(0.05,0,0,0.05,47.95,0)" xlink:href="#aS"/><use transform="matrix(0.05,0,0,0.05,57.95,0)" xlink:href="#aI"/><use transform="matrix(0.05,0,0,0.05,72.9,0)" xlink:href="#aJ"/></g><path d="M115-194c53 0 69 39 70 98 0 66-23 100-70 100C84 3 66-7 56-30L54 0H23l1-261h32v101c10-23 28-34 59-34zm-8 174c40 0 45-34 45-75 0-40-5-75-45-74-42 0-51 32-51 76 0 43 10 73 51 73" id="be"/><path d="M179-190L93 31C79 59 56 82 12 73V49c39 6 53-20 64-50L1-190h34L92-34l54-156h33" id="bf"/><g id="k"><use transform="matrix(0.05,0,0,0.05,0,0)" xlink:href="#be"/><use transform="matrix(0.05,0,0,0.05,10,0)" xlink:href="#aP"/><use transform="matrix(0.05,0,0,0.05,13.949999999999998,0)" xlink:href="#aK"/><use transform="matrix(0.05,0,0,0.05,19.9,0)" xlink:href="#aG"/><use transform="matrix(0.05,0,0,0.05,24.9,0)" xlink:href="#aV"/><use transform="matrix(0.05,0,0,0.05,34.9,0)" xlink:href="#aQ"/><use transform="matrix(0.05,0,0,0.05,44.9,0)" xlink:href="#aS"/><use transform="matrix(0.05,0,0,0.05,54.900000000000006,0)" xlink:href="#bf"/></g><g id="l"><use transform="matrix(0.05,0,0,0.05,0,0)" xlink:href="#aQ"/><use transform="matrix(0.05,0,0,0.05,10,0)" xlink:href="#aS"/><use transform="matrix(0.05,0,0,0.05,20,0)" xlink:href="#aG"/><use transform="matrix(0.05,0,0,0.05,25,0)" xlink:href="#aJ"/></g><g id="m"><use transform="matrix(0.05,0,0,0.05,0,0)" xlink:href="#aN"/><use transform="matrix(0.05,0,0,0.05,9,0)" xlink:href="#aH"/><use transform="matrix(0.05,0,0,0.05,19,0)" xlink:href="#aR"/><use transform="matrix(0.05,0,0,0.05,29,0)" xlink:href="#aG"/><use transform="matrix(0.05,0,0,0.05,34,0)" xlink:href="#aS"/><use transform="matrix(0.05,0,0,0.05,44,0)" xlink:href="#aN"/><use transform="matrix(0.05,0,0,0.05,53,0)" xlink:href="#aG"/><use transform="matrix(0.05,0,0,0.05,58,0)" xlink:href="#aO"/><use transform="matrix(0.05,0,0,0.05,68,0)" xlink:href="#aR"/><use transform="matrix(0.05,0,0,0.05,78,0)" xlink:href="#aE"/><use transform="matrix(0.05,0,0,0.05,88,0)" xlink:href="#aI"/><use transform="matrix(0.05,0,0,0.05,102.95,0)" xlink:href="#be"/><use transform="matrix(0.05,0,0,0.05,112.95,0)" xlink:href="#aJ"/><use transform="matrix(0.05,0,0,0.05,122.95,0)" xlink:href="#aK"/></g><g id="n"><use transform="matrix(0.05,0,0,0.05,0,0)" xlink:href="#aU"/><use transform="matrix(0.05,0,0,0.05,9,0)" xlink:href="#aS"/><use transform="matrix(0.05,0,0,0.05,19,0)" xlink:href="#aK"/><use transform="matrix(0.05,0,0,0.05,24.95,0)" xlink:href="#aN"/><use transform="matrix(0.05,0,0,0.05,33.95,0)" xlink:href="#aV"/><use transform="matrix(0.05,0,0,0.05,43.95,0)" xlink:href="#aS"/><use transform="matrix(0.05,0,0,0.05,53.95,0)" xlink:href="#aK"/><use transform="matrix(0.05,0,0,0.05,59.900000000000006,0)" xlink:href="#aW"/><use transform="matrix(0.05,0,0,0.05,65.85000000000001,0)" xlink:href="#bc"/><use transform="matrix(0.05,0,0,0.05,75.85000000000001,0)" xlink:href="#aY"/><use transform="matrix(0.05,0,0,0.05,85.85000000000001,0)" xlink:href="#aZ"/></g><g id="o"><use transform="matrix(0.05,0,0,0.05,0,0)" xlink:href="#aR"/><use transform="matrix(0.05,0,0,0.05,10,0)" xlink:href="#aP"/><use transform="matrix(0.05,0,0,0.05,13.949999999999998,0)" xlink:href="#aN"/></g><path d="M27 0v-27h64v-190l-56 39v-29l58-41h29v221h61V0H27" id="bg"/><g id="p"><use transform="matrix(0.05,0,0,0.05,0,0)" xlink:href="#aU"/><use transform="matrix(0.05,0,0,0.05,9,0)" xlink:href="#aS"/><use transform="matrix(0.05,0,0,0.05,19,0)" xlink:href="#aK"/><use transform="matrix(0.05,0,0,0.05,24.95,0)" xlink:href="#aN"/><use transform="matrix(0.05,0,0,0.05,33.95,0)" xlink:href="#aV"/><use transform="matrix(0.05,0,0,0.05,43.95,0)" xlink:href="#aS"/><use transform="matrix(0.05,0,0,0.05,53.95,0)" xlink:href="#aK"/><use transform="matrix(0.05,0,0,0.05,59.900000000000006,0)" xlink:href="#aW"/><use transform="matrix(0.05,0,0,0.05,65.85000000000001,0)" xlink:href="#bg"/><use transform="matrix(0.05,0,0,0.05,75.85000000000001,0)" xlink:href="#aY"/><use transform="matrix(0.05,0,0,0.05,85.85000000000001,0)" xlink:href="#aZ"/></g><path d="M177-190C167-65 218 103 67 71c-23-6-38-20-44-43l32-5c15 47 100 32 89-28v-30C133-14 115 1 83 1 29 1 15-40 15-95c0-56 16-97 71-98 29-1 48 16 59 35 1-10 0-23 2-32h30zM94-22c36 0 50-32 50-73 0-42-14-75-50-75-39 0-46 34-46 75s6 73 46 73" id="bh"/><g id="q"><use transform="matrix(0.05,0,0,0.05,0,0)" xlink:href="#bh"/><use transform="matrix(0.05,0,0,0.05,10,0)" xlink:href="#aJ"/><use transform="matrix(0.05,0,0,0.05,20,0)" xlink:href="#aR"/><use transform="matrix(0.05,0,0,0.05,30,0)" xlink:href="#aQ"/><use transform="matrix(0.05,0,0,0.05,40,0)" xlink:href="#aJ"/><use transform="matrix(0.05,0,0,0.05,50,0)" xlink:href="#aK"/></g><g id="r"><use transform="matrix(0.05,0,0,0.05,0,0)" xlink:href="#aE"/><use transform="matrix(0.05,0,0,0.05,10,0)" xlink:href="#aF"/><use transform="matrix(0.05,0,0,0.05,19,0)" xlink:href="#aJ"/><use transform="matrix(0.05,0,0,0.05,29,0)" xlink:href="#aK"/><use transform="matrix(0.05,0,0,0.05,34.95,0)" xlink:href="#aO"/><use transform="matrix(0.05,0,0,0.05,44.95,0)" xlink:href="#aF"/><use transform="matrix(0.05,0,0,0.05,53.95,0)" xlink:href="#aG"/><use transform="matrix(0.05,0,0,0.05,58.95,0)" xlink:href="#aS"/><use transform="matrix(0.05,0,0,0.05,68.95,0)" xlink:href="#aG"/><use transform="matrix(0.05,0,0,0.05,73.95,0)" xlink:href="#aE"/><use transform="matrix(0.05,0,0,0.05,83.95,0)" xlink:href="#aF"/></g><g id="s"><use transform="matrix(0.05,0,0,0.05,0,0)" xlink:href="#be"/><use transform="matrix(0.05,0,0,0.05,10,0)" xlink:href="#aH"/><use transform="matrix(0.05,0,0,0.05,20,0)" xlink:href="#aH"/><use transform="matrix(0.05,0,0,0.05,30,0)" xlink:href="#aT"/></g><path d="M30-248c118-7 216 8 213 122C240-48 200 0 122 0H30v-248zM63-27c89 8 146-16 146-99s-60-101-146-95v194" id="bi"/><g id="t"><use transform="matrix(0.05,0,0,0.05,0,0)" xlink:href="#bi"/><use transform="matrix(0.05,0,0,0.05,12.950000000000001,0)" xlink:href="#aK"/><use transform="matrix(0.05,0,0,0.05,18.900000000000002,0)" xlink:href="#aP"/><use transform="matrix(0.05,0,0,0.05,22.85,0)" xlink:href="#aU"/><use transform="matrix(0.05,0,0,0.05,31.85,0)" xlink:href="#aJ"/><use transform="matrix(0.05,0,0,0.05,41.85,0)" xlink:href="#aK"/></g><g id="u"><use transform="matrix(0.05,0,0,0.05,0,0)" xlink:href="#aL"/><use transform="matrix(0.05,0,0,0.05,12,0)" xlink:href="#aM"/></g><g id="v"><use transform="matrix(0.05,0,0,0.05,0,0)" xlink:href="#aQ"/><use transform="matrix(0.05,0,0,0.05,10,0)" xlink:href="#aK"/><use transform="matrix(0.05,0,0,0.05,15.949999999999998,0)" xlink:href="#aP"/><use transform="matrix(0.05,0,0,0.05,19.9,0)" xlink:href="#aU"/><use transform="matrix(0.05,0,0,0.05,28.899999999999995,0)" xlink:href="#aJ"/><use transform="matrix(0.05,0,0,0.05,38.9,0)" xlink:href="#aK"/><use transform="matrix(0.05,0,0,0.05,44.85,0)" xlink:href="#aO"/><use transform="matrix(0.05,0,0,0.05,54.85,0)" xlink:href="#aP"/><use transform="matrix(0.05,0,0,0.05,58.800000000000004,0)" xlink:href="#aQ"/></g><g id="w"><use transform="matrix(0.05,0,0,0.05,0,0)" xlink:href="#aP"/><use transform="matrix(0.05,0,0,0.05,3.95,0)" xlink:href="#aR"/><use transform="matrix(0.05,0,0,0.05,13.949999999999998,0)" xlink:href="#aG"/></g><g id="x"><use transform="matrix(0.05,0,0,0.05,0,0)" xlink:href="#aJ"/><use transform="matrix(0.05,0,0,0.05,10,0)" xlink:href="#aI"/><use transform="matrix(0.05,0,0,0.05,24.950000000000003,0)" xlink:href="#aS"/><use transform="matrix(0.05,0,0,0.05,34.95,0)" xlink:href="#aP"/><use transform="matrix(0.05,0,0,0.05,38.900000000000006,0)" xlink:href="#aT"/></g><g id="y"><use transform="matrix(0.05,0,0,0.05,0,0)" xlink:href="#aU"/><use transform="matrix(0.05,0,0,0.05,9,0)" xlink:href="#aS"/><use transform="matrix(0.05,0,0,0.05,19,0)" xlink:href="#aK"/><use transform="matrix(0.05,0,0,0.05,24.95,0)" xlink:href="#aN"/><use transform="matrix(0.05,0,0,0.05,33.95,0)" xlink:href="#aV"/><use transform="matrix(0.05,0,0,0.05,43.95,0)" xlink:href="#aS"/><use transform="matrix(0.05,0,0,0.05,53.95,0)" xlink:href="#aK"/><use transform="matrix(0.05,0,0,0.05,59.900000000000006,0)" xlink:href="#aW"/><use transform="matrix(0.05,0,0,0.05,65.85000000000001,0)" xlink:href="#aX"/><use transform="matrix(0.05,0,0,0.05,75.85000000000001,0)" xlink:href="#aY"/><use transform="matrix(0.05,0,0,0.05,85.85000000000001,0)" xlink:href="#aZ"/></g><g id="z"><use transform="matrix(0.05,0,0,0.05,0,0)" xlink:href="#ba"/><use transform="matrix(0.05,0,0,0.05,10,0)" xlink:href="#aS"/><use transform="matrix(0.05,0,0,0.05,20,0)" xlink:href="#aF"/><use transform="matrix(0.05,0,0,0.05,29,0)" xlink:href="#aF"/><use transform="matrix(0.05,0,0,0.05,38,0)" xlink:href="#bb"/><use transform="matrix(0.05,0,0,0.05,50.95,0)" xlink:href="#aH"/><use transform="matrix(0.05,0,0,0.05,60.95,0)" xlink:href="#aK"/><use transform="matrix(0.05,0,0,0.05,66.9,0)" xlink:href="#aQ"/></g><g id="A"><use transform="matrix(0.05,0,0,0.05,0,0)" xlink:href="#aU"/><use transform="matrix(0.05,0,0,0.05,9,0)" xlink:href="#aS"/><use transform="matrix(0.05,0,0,0.05,19,0)" xlink:href="#aK"/><use transform="matrix(0.05,0,0,0.05,24.95,0)" xlink:href="#aN"/><use transform="matrix(0.05,0,0,0.05,33.95,0)" xlink:href="#aV"/><use transform="matrix(0.05,0,0,0.05,43.95,0)" xlink:href="#aS"/><use transform="matrix(0.05,0,0,0.05,53.95,0)" xlink:href="#aK"/><use transform="matrix(0.05,0,0,0.05,59.900000000000006,0)" xlink:href="#aW"/><use transform="matrix(0.05,0,0,0.05,65.85000000000001,0)" xlink:href="#bc"/><use transform="matrix(0.05,0,0,0.05,75.85000000000001,0)" xlink:href="#aY"/><use transform="matrix(0.05,0,0,0.05,85.85000000000001,0)" xlink:href="#aY"/><use transform="matrix(0.05,0,0,0.05,95.85000000000001,0)" xlink:href="#aZ"/></g><g id="B"><use transform="matrix(0.05,0,0,0.05,0,0)" xlink:href="#bd"/><use transform="matrix(0.05,0,0,0.05,5,0)" xlink:href="#aP"/><use transform="matrix(0.05,0,0,0.05,8.95,0)" xlink:href="#aK"/><use transform="matrix(0.05,0,0,0.05,14.899999999999999,0)" xlink:href="#aF"/><use transform="matrix(0.05,0,0,0.05,23.9,0)" xlink:href="#aG"/><use transform="matrix(0.05,0,0,0.05,28.899999999999995,0)" xlink:href="#aO"/><use transform="matrix(0.05,0,0,0.05,38.9,0)" xlink:href="#aR"/><use transform="matrix(0.05,0,0,0.05,48.9,0)" xlink:href="#aS"/><use transform="matrix(0.05,0,0,0.05,58.900000000000006,0)" xlink:href="#aI"/><use transform="matrix(0.05,0,0,0.05,73.85,0)" xlink:href="#aJ"/></g><g id="C"><use transform="matrix(0.05,0,0,0.05,0,0)" xlink:href="#aT"/><use transform="matrix(0.05,0,0,0.05,3.95,0)" xlink:href="#aS"/><use transform="matrix(0.05,0,0,0.05,13.949999999999998,0)" xlink:href="#aF"/><use transform="matrix(0.05,0,0,0.05,22.95,0)" xlink:href="#aG"/><use transform="matrix(0.05,0,0,0.05,27.950000000000003,0)" xlink:href="#aO"/><use transform="matrix(0.05,0,0,0.05,37.95,0)" xlink:href="#aR"/><use transform="matrix(0.05,0,0,0.05,47.95,0)" xlink:href="#aS"/><use transform="matrix(0.05,0,0,0.05,57.95,0)" xlink:href="#aI"/><use transform="matrix(0.05,0,0,0.05,72.9,0)" xlink:href="#aJ"/></g><g id="D"><use transform="matrix(0.05,0,0,0.05,0,0)" xlink:href="#aT"/><use transform="matrix(0.05,0,0,0.05,3.95,0)" xlink:href="#aP"/><use transform="matrix(0.05,0,0,0.05,7.9,0)" xlink:href="#aN"/><use transform="matrix(0.05,0,0,0.05,16.9,0)" xlink:href="#aJ"/><use transform="matrix(0.05,0,0,0.05,26.899999999999995,0)" xlink:href="#aR"/><use transform="matrix(0.05,0,0,0.05,36.9,0)" xlink:href="#aF"/><use transform="matrix(0.05,0,0,0.05,45.9,0)" xlink:href="#aJ"/><use transform="matrix(0.05,0,0,0.05,55.900000000000006,0)" xlink:href="#aO"/><use transform="matrix(0.05,0,0,0.05,65.9,0)" xlink:href="#aR"/><use transform="matrix(0.05,0,0,0.05,75.9,0)" xlink:href="#aE"/><use transform="matrix(0.05,0,0,0.05,85.9,0)" xlink:href="#aI"/><use transform="matrix(0.05,0,0,0.05,100.85000000000001,0)" xlink:href="#be"/><use transform="matrix(0.05,0,0,0.05,110.85000000000001,0)" xlink:href="#aJ"/><use transform="matrix(0.05,0,0,0.05,120.85000000000001,0)" xlink:href="#aK"/></g><g id="E"><use transform="matrix(0.05,0,0,0.05,0,0)" xlink:href="#aU"/><use transform="matrix(0.05,0,0,0.05,9,0)" xlink:href="#aS"/><use transform="matrix(0.05,0,0,0.05,19,0)" xlink:href="#aK"/><use transform="matrix(0.05,0,0,0.05,24.95,0)" xlink:href="#aN"/><use transform="matrix(0.05,0,0,0.05,33.95,0)" xlink:href="#aV"/><use transform="matrix(0.05,0,0,0.05,43.95,0)" xlink:href="#aS"/><use transform="matrix(0.05,0,0,0.05,53.95,0)" xlink:href="#aK"/><use transform="matrix(0.05,0,0,0.05,59.900000000000006,0)" xlink:href="#aW"/><use transform="matrix(0.05,0,0,0.05,65.85000000000001,0)" xlink:href="#bc"/><use transform="matrix(0.05,0,0,0.05,75.85000000000001,0)" xlink:href="#aY"/><use transform="matrix(0.05,0,0,0.05,85.85000000000001,0)" xlink:href="#aZ"/></g><g id="F"><use transform="matrix(0.05,0,0,0.05,0,0)" xlink:href="#aN"/><use transform="matrix(0.05,0,0,0.05,9,0)" xlink:href="#aH"/><use transform="matrix(0.05,0,0,0.05,19,0)" xlink:href="#aR"/><use transform="matrix(0.05,0,0,0.05,29,0)" xlink:href="#aG"/><use transform="matrix(0.05,0,0,0.05,34,0)" xlink:href="#aS"/><use transform="matrix(0.05,0,0,0.05,44,0)" xlink:href="#aN"/><use transform="matrix(0.05,0,0,0.05,53,0)" xlink:href="#aG"/><use transform="matrix(0.05,0,0,0.05,58,0)" xlink:href="#aO"/><use transform="matrix(0.05,0,0,0.05,68,0)" xlink:href="#aR"/><use transform="matrix(0.05,0,0,0.05,78,0)" xlink:href="#aE"/><use transform="matrix(0.05,0,0,0.05,88,0)" xlink:href="#aI"/><use transform="matrix(0.05,0,0,0.05,102.95,0)" xlink:href="#be"/><use transform="matrix(0.05,0,0,0.05,112.95,0)" xlink:href="#aJ"/><use transform="matrix(0.05,0,0,0.05,122.95,0)" xlink:href="#aK"/></g><g id="G"><use transform="matrix(0.05,0,0,0.05,0,0)" xlink:href="#aU"/><use transform="matrix(0.05,0,0,0.05,9,0)" xlink:href="#aS"/><use transform="matrix(0.05,0,0,0.05,19,0)" xlink:href="#aK"/><use transform="matrix(0.05,0,0,0.05,24.95,0)" xlink:href="#aN"/><use transform="matrix(0.05,0,0,0.05,33.95,0)" xlink:href="#aV"/><use transform="matrix(0.05,0,0,0.05,43.95,0)" xlink:href="#aS"/><use transform="matrix(0.05,0,0,0.05,53.95,0)" xlink:href="#aK"/><use transform="matrix(0.05,0,0,0.05,59.900000000000006,0)" xlink:href="#aW"/><use transform="matrix(0.05,0,0,0.05,65.85000000000001,0)" xlink:href="#bc"/><use transform="matrix(0.05,0,0,0.05,75.85000000000001,0)" xlink:href="#aY"/><use transform="matrix(0.05,0,0,0.05,85.85000000000001,0)" xlink:href="#aZ"/></g><g id="H"><use transform="matrix(0.05,0,0,0.05,0,0)" xlink:href="#aS"/><use transform="matrix(0.05,0,0,0.05,10,0)" xlink:href="#bh"/><use transform="matrix(0.05,0,0,0.05,20,0)" xlink:href="#aJ"/></g><g id="I"><use transform="matrix(0.05,0,0,0.05,0,0)" xlink:href="#aP"/><use transform="matrix(0.05,0,0,0.05,3.95,0)" xlink:href="#aR"/><use transform="matrix(0.05,0,0,0.05,13.949999999999998,0)" xlink:href="#aG"/></g><g id="J"><use transform="matrix(0.05,0,0,0.05,0,0)" xlink:href="#bh"/><use transform="matrix(0.05,0,0,0.05,10,0)" xlink:href="#aJ"/><use transform="matrix(0.05,0,0,0.05,20,0)" xlink:href="#aR"/><use transform="matrix(0.05,0,0,0.05,30,0)" xlink:href="#aQ"/><use transform="matrix(0.05,0,0,0.05,40,0)" xlink:href="#aJ"/><use transform="matrix(0.05,0,0,0.05,50,0)" xlink:href="#aK"/></g><g id="K"><use transform="matrix(0.05,0,0,0.05,0,0)" xlink:href="#aQ"/><use transform="matrix(0.05,0,0,0.05,10,0)" xlink:href="#aK"/><use transform="matrix(0.05,0,0,0.05,15.949999999999998,0)" xlink:href="#aP"/><use transform="matrix(0.05,0,0,0.05,19.9,0)" xlink:href="#aU"/><use transform="matrix(0.05,0,0,0.05,28.899999999999995,0)" xlink:href="#aJ"/><use transform="matrix(0.05,0,0,0.05,38.9,0)" xlink:href="#aK"/><use transform="matrix(0.05,0,0,0.05,44.85,0)" xlink:href="#aO"/><use transform="matrix(0.05,0,0,0.05,54.85,0)" xlink:href="#aF"/><use transform="matrix(0.05,0,0,0.05,63.85,0)" xlink:href="#aG"/><use transform="matrix(0.05,0,0,0.05,68.85,0)" xlink:href="#aS"/><use transform="matrix(0.05,0,0,0.05,78.85,0)" xlink:href="#aG"/><use transform="matrix(0.05,0,0,0.05,83.85,0)" xlink:href="#aE"/><use transform="matrix(0.05,0,0,0.05,93.85,0)" xlink:href="#aF"/></g><path d="M63-220v92h138v28H63V0H30v-248h175v28H63" id="bj"/><g id="L"><use transform="matrix(0.05,0,0,0.05,0,0)" xlink:href="#bj"/><use transform="matrix(0.05,0,0,0.05,10.950000000000001,0)" xlink:href="#aM"/></g><g id="M"><use transform="matrix(0.05,0,0,0.05,0,0)" xlink:href="#aN"/><use transform="matrix(0.05,0,0,0.05,9,0)" xlink:href="#aH"/><use transform="matrix(0.05,0,0,0.05,19,0)" xlink:href="#aR"/><use transform="matrix(0.05,0,0,0.05,29,0)" xlink:href="#bd"/><use transform="matrix(0.05,0,0,0.05,34,0)" xlink:href="#aP"/><use transform="matrix(0.05,0,0,0.05,37.95,0)" xlink:href="#aK"/><use transform="matrix(0.05,0,0,0.05,43.900000000000006,0)" xlink:href="#aI"/><use transform="matrix(0.05,0,0,0.05,58.85,0)" xlink:href="#aJ"/><use transform="matrix(0.05,0,0,0.05,68.85000000000001,0)" xlink:href="#aQ"/><use transform="matrix(0.05,0,0,0.05,78.85000000000001,0)" xlink:href="#aO"/><use transform="matrix(0.05,0,0,0.05,88.85000000000001,0)" xlink:href="#be"/><use transform="matrix(0.05,0,0,0.05,98.85000000000001,0)" xlink:href="#bf"/></g><g id="N"><use transform="matrix(0.05,0,0,0.05,0,0)" xlink:href="#aP"/><use transform="matrix(0.05,0,0,0.05,3.95,0)" xlink:href="#aR"/><use transform="matrix(0.05,0,0,0.05,13.949999999999998,0)" xlink:href="#aG"/></g><path d="M197 0v-115H63V0H30v-248h33v105h134v-105h34V0h-34" id="bk"/><g id="O"><use transform="matrix(0.05,0,0,0.05,0,0)" xlink:href="#bk"/><use transform="matrix(0.05,0,0,0.05,12.950000000000001,0)" xlink:href="#aP"/><use transform="matrix(0.05,0,0,0.05,16.900000000000002,0)" xlink:href="#aK"/><use transform="matrix(0.05,0,0,0.05,22.85,0)" xlink:href="#aJ"/></g><g id="P"><use transform="matrix(0.05,0,0,0.05,0,0)" xlink:href="#aV"/><use transform="matrix(0.05,0,0,0.05,10,0)" xlink:href="#aP"/><use transform="matrix(0.05,0,0,0.05,13.949999999999998,0)" xlink:href="#aK"/><use transform="matrix(0.05,0,0,0.05,19.9,0)" xlink:href="#aJ"/><use transform="matrix(0.05,0,0,0.05,29.899999999999995,0)" xlink:href="#aO"/><use transform="matrix(0.05,0,0,0.05,39.9,0)" xlink:href="#aP"/><use transform="matrix(0.05,0,0,0.05,43.85,0)" xlink:href="#aQ"/></g><g id="Q"><use transform="matrix(0.05,0,0,0.05,0,0)" xlink:href="#bj"/><use transform="matrix(0.05,0,0,0.05,10.950000000000001,0)" xlink:href="#aM"/></g><g id="R"><use transform="matrix(0.05,0,0,0.05,0,0)" xlink:href="#aN"/><use transform="matrix(0.05,0,0,0.05,9,0)" xlink:href="#aE"/><use transform="matrix(0.05,0,0,0.05,19,0)" xlink:href="#aF"/><use transform="matrix(0.05,0,0,0.05,28,0)" xlink:href="#aG"/><use transform="matrix(0.05,0,0,0.05,33,0)" xlink:href="#aH"/><use transform="matrix(0.05,0,0,0.05,43,0)" xlink:href="#aI"/><use transform="matrix(0.05,0,0,0.05,57.95,0)" xlink:href="#aJ"/><use transform="matrix(0.05,0,0,0.05,67.95,0)" xlink:href="#aK"/><use transform="matrix(0.05,0,0,0.05,73.9,0)" xlink:href="#aO"/><use transform="matrix(0.05,0,0,0.05,83.9,0)" xlink:href="#aP"/><use transform="matrix(0.05,0,0,0.05,87.85000000000001,0)" xlink:href="#aQ"/></g><g id="S"><use transform="matrix(0.05,0,0,0.05,0,0)" xlink:href="#aF"/><use transform="matrix(0.05,0,0,0.05,9,0)" xlink:href="#aG"/><use transform="matrix(0.05,0,0,0.05,14,0)" xlink:href="#aS"/><use transform="matrix(0.05,0,0,0.05,24,0)" xlink:href="#aK"/><use transform="matrix(0.05,0,0,0.05,29.950000000000003,0)" xlink:href="#aG"/><use transform="matrix(0.05,0,0,0.05,34.95,0)" xlink:href="#aO"/><use transform="matrix(0.05,0,0,0.05,44.95,0)" xlink:href="#aT"/><use transform="matrix(0.05,0,0,0.05,48.900000000000006,0)" xlink:href="#aH"/><use transform="matrix(0.05,0,0,0.05,58.900000000000006,0)" xlink:href="#aN"/><use transform="matrix(0.05,0,0,0.05,67.9,0)" xlink:href="#aS"/><use transform="matrix(0.05,0,0,0.05,77.9,0)" xlink:href="#aG"/><use transform="matrix(0.05,0,0,0.05,82.9,0)" xlink:href="#aP"/><use transform="matrix(0.05,0,0,0.05,86.85000000000001,0)" xlink:href="#aH"/><use transform="matrix(0.05,0,0,0.05,96.85000000000001,0)" xlink:href="#aR"/><use transform="matrix(0.05,0,0,0.05,106.85000000000001,0)" xlink:href="#aO"/><use transform="matrix(0.05,0,0,0.05,116.85000000000001,0)" xlink:href="#aT"/><use transform="matrix(0.05,0,0,0.05,120.80000000000001,0)" xlink:href="#aS"/><use transform="matrix(0.05,0,0,0.05,130.8,0)" xlink:href="#aG"/><use transform="matrix(0.05,0,0,0.05,135.8,0)" xlink:href="#aP"/><use transform="matrix(0.05,0,0,0.05,139.75,0)" xlink:href="#aG"/><use transform="matrix(0.05,0,0,0.05,144.75,0)" xlink:href="#aE"/><use transform="matrix(0.05,0,0,0.05,154.75,0)" xlink:href="#aQ"/><use transform="matrix(0.05,0,0,0.05,164.75,0)" xlink:href="#aJ"/></g><path d="M68-38c1 34 0 65-14 84H32c9-13 17-26 17-46H33v-38h35" id="bl"/><path d="M110-160c48 1 74 30 74 79 0 53-28 85-80 85-65 0-83-55-86-122-5-90 50-162 133-122 14 7 22 21 27 39l-31 6c-5-40-67-38-82-6-9 19-15 44-15 74 11-20 30-34 60-33zm-7 138c34 0 49-23 49-58s-16-56-50-56c-29 0-50 16-49 49 1 36 15 65 50 65" id="bm"/><g id="T"><use transform="matrix(0.05,0,0,0.05,0,0)" xlink:href="#bd"/><use transform="matrix(0.05,0,0,0.05,5,0)" xlink:href="#aT"/><use transform="matrix(0.05,0,0,0.05,8.95,0)" xlink:href="#aH"/><use transform="matrix(0.05,0,0,0.05,18.95,0)" xlink:href="#aS"/><use transform="matrix(0.05,0,0,0.05,28.950000000000003,0)" xlink:href="#aG"/><use transform="matrix(0.05,0,0,0.05,33.95,0)" xlink:href="#aW"/><use transform="matrix(0.05,0,0,0.05,39.900000000000006,0)" xlink:href="#bg"/><use transform="matrix(0.05,0,0,0.05,49.900000000000006,0)" xlink:href="#aY"/><use transform="matrix(0.05,0,0,0.05,59.900000000000006,0)" xlink:href="#bl"/><use transform="matrix(0.05,0,0,0.05,64.9,0)" xlink:href="#bm"/><use transform="matrix(0.05,0,0,0.05,74.9,0)" xlink:href="#aZ"/></g><g id="U"><use transform="matrix(0.05,0,0,0.05,0,0)" xlink:href="#aF"/><use transform="matrix(0.05,0,0,0.05,9,0)" xlink:href="#aG"/><use transform="matrix(0.05,0,0,0.05,14,0)" xlink:href="#aS"/><use transform="matrix(0.05,0,0,0.05,24,0)" xlink:href="#aK"/><use transform="matrix(0.05,0,0,0.05,29.950000000000003,0)" xlink:href="#aG"/><use transform="matrix(0.05,0,0,0.05,34.95,0)" xlink:href="#aO"/><use transform="matrix(0.05,0,0,0.05,44.95,0)" xlink:href="#aT"/><use transform="matrix(0.05,0,0,0.05,48.900000000000006,0)" xlink:href="#aH"/><use transform="matrix(0.05,0,0,0.05,58.900000000000006,0)" xlink:href="#aN"/><use transform="matrix(0.05,0,0,0.05,67.9,0)" xlink:href="#aS"/><use transform="matrix(0.05,0,0,0.05,77.9,0)" xlink:href="#aG"/><use transform="matrix(0.05,0,0,0.05,82.9,0)" xlink:href="#aP"/><use transform="matrix(0.05,0,0,0.05,86.85000000000001,0)" xlink:href="#aH"/><use transform="matrix(0.05,0,0,0.05,96.85000000000001,0)" xlink:href="#aR"/><use transform="matrix(0.05,0,0,0.05,106.85000000000001,0)" xlink:href="#aO"/><use transform="matrix(0.05,0,0,0.05,116.85000000000001,0)" xlink:href="#aT"/><use transform="matrix(0.05,0,0,0.05,120.80000000000001,0)" xlink:href="#aH"/><use transform="matrix(0.05,0,0,0.05,130.8,0)" xlink:href="#aR"/><use transform="matrix(0.05,0,0,0.05,140.8,0)" xlink:href="#bh"/><use transform="matrix(0.05,0,0,0.05,150.8,0)" xlink:href="#aP"/><use transform="matrix(0.05,0,0,0.05,154.75,0)" xlink:href="#aG"/><use transform="matrix(0.05,0,0,0.05,159.75,0)" xlink:href="#aE"/><use transform="matrix(0.05,0,0,0.05,169.75,0)" xlink:href="#aQ"/><use transform="matrix(0.05,0,0,0.05,179.75,0)" xlink:href="#aJ"/></g><g id="V"><use transform="matrix(0.05,0,0,0.05,0,0)" xlink:href="#aJ"/><use transform="matrix(0.05,0,0,0.05,10,0)" xlink:href="#aR"/><use transform="matrix(0.05,0,0,0.05,20,0)" xlink:href="#aQ"/><use transform="matrix(0.05,0,0,0.05,30,0)" xlink:href="#aO"/><use transform="matrix(0.05,0,0,0.05,40,0)" xlink:href="#aT"/><use transform="matrix(0.05,0,0,0.05,43.95,0)" xlink:href="#aH"/><use transform="matrix(0.05,0,0,0.05,53.95,0)" xlink:href="#aN"/><use transform="matrix(0.05,0,0,0.05,62.95,0)" xlink:href="#aS"/><use transform="matrix(0.05,0,0,0.05,72.95,0)" xlink:href="#aG"/><use transform="matrix(0.05,0,0,0.05,77.95,0)" xlink:href="#aP"/><use transform="matrix(0.05,0,0,0.05,81.9,0)" xlink:href="#aH"/><use transform="matrix(0.05,0,0,0.05,91.9,0)" xlink:href="#aR"/><use transform="matrix(0.05,0,0,0.05,101.9,0)" xlink:href="#aO"/><use transform="matrix(0.05,0,0,0.05,111.9,0)" xlink:href="#aT"/><use transform="matrix(0.05,0,0,0.05,115.85000000000001,0)" xlink:href="#aS"/><use transform="matrix(0.05,0,0,0.05,125.85000000000001,0)" xlink:href="#aG"/><use transform="matrix(0.05,0,0,0.05,130.85000000000002,0)" xlink:href="#aP"/><use transform="matrix(0.05,0,0,0.05,134.8,0)" xlink:href="#aG"/><use transform="matrix(0.05,0,0,0.05,139.8,0)" xlink:href="#aE"/><use transform="matrix(0.05,0,0,0.05,149.8,0)" xlink:href="#aQ"/><use transform="matrix(0.05,0,0,0.05,159.8,0)" xlink:href="#aJ"/></g><g id="W"><use transform="matrix(0.05,0,0,0.05,0,0)" xlink:href="#aJ"/><use transform="matrix(0.05,0,0,0.05,10,0)" xlink:href="#aR"/><use transform="matrix(0.05,0,0,0.05,20,0)" xlink:href="#aQ"/><use transform="matrix(0.05,0,0,0.05,30,0)" xlink:href="#aO"/><use transform="matrix(0.05,0,0,0.05,40,0)" xlink:href="#aT"/><use transform="matrix(0.05,0,0,0.05,43.95,0)" xlink:href="#aH"/><use transform="matrix(0.05,0,0,0.05,53.95,0)" xlink:href="#aN"/><use transform="matrix(0.05,0,0,0.05,62.95,0)" xlink:href="#aS"/><use transform="matrix(0.05,0,0,0.05,72.95,0)" xlink:href="#aG"/><use transform="matrix(0.05,0,0,0.05,77.95,0)" xlink:href="#aP"/><use transform="matrix(0.05,0,0,0.05,81.9,0)" xlink:href="#aH"/><use transform="matrix(0.05,0,0,0.05,91.9,0)" xlink:href="#aR"/><use transform="matrix(0.05,0,0,0.05,101.9,0)" xlink:href="#aO"/><use transform="matrix(0.05,0,0,0.05,111.9,0)" xlink:href="#aT"/><use transform="matrix(0.05,0,0,0.05,115.85000000000001,0)" xlink:href="#aH"/><use transform="matrix(0.05,0,0,0.05,125.85000000000001,0)" xlink:href="#aR"/><use transform="matrix(0.05,0,0,0.05,135.85000000000002,0)" xlink:href="#bh"/><use transform="matrix(0.05,0,0,0.05,145.85000000000002,0)" xlink:href="#aP"/><use transform="matrix(0.05,0,0,0.05,149.8,0)" xlink:href="#aG"/><use transform="matrix(0.05,0,0,0.05,154.8,0)" xlink:href="#aE"/><use transform="matrix(0.05,0,0,0.05,164.8,0)" xlink:href="#aQ"/><use transform="matrix(0.05,0,0,0.05,174.8,0)" xlink:href="#aJ"/></g><g id="X"><use transform="matrix(0.05,0,0,0.05,0,0)" xlink:href="#aN"/><use transform="matrix(0.05,0,0,0.05,9,0)" xlink:href="#aH"/><use transform="matrix(0.05,0,0,0.05,19,0)" xlink:href="#aF"/><use transform="matrix(0.05,0,0,0.05,28,0)" xlink:href="#aG"/></g><g id="Y"><use transform="matrix(0.05,0,0,0.05,0,0)" xlink:href="#aQ"/><use transform="matrix(0.05,0,0,0.05,10,0)" xlink:href="#aH"/><use transform="matrix(0.05,0,0,0.05,20,0)" xlink:href="#aE"/><use transform="matrix(0.05,0,0,0.05,30,0)" xlink:href="#be"/><use transform="matrix(0.05,0,0,0.05,40,0)" xlink:href="#aT"/><use transform="matrix(0.05,0,0,0.05,43.95,0)" xlink:href="#aJ"/></g><g id="Z"><use transform="matrix(0.05,0,0,0.05,0,0)" xlink:href="#aQ"/><use transform="matrix(0.05,0,0,0.05,10,0)" xlink:href="#aS"/><use transform="matrix(0.05,0,0,0.05,20,0)" xlink:href="#aG"/><use transform="matrix(0.05,0,0,0.05,25,0)" xlink:href="#aJ"/></g><path d="M33 0v-248h34V0H33" id="bn"/><g id="aa"><use transform="matrix(0.05,0,0,0.05,0,0)" xlink:href="#bi"/><use transform="matrix(0.05,0,0,0.05,12.950000000000001,0)" xlink:href="#aK"/><use transform="matrix(0.05,0,0,0.05,18.900000000000002,0)" xlink:href="#aP"/><use transform="matrix(0.05,0,0,0.05,22.85,0)" xlink:href="#aU"/><use transform="matrix(0.05,0,0,0.05,31.85,0)" xlink:href="#aJ"/><use transform="matrix(0.05,0,0,0.05,41.85,0)" xlink:href="#aK"/><use transform="matrix(0.05,0,0,0.05,47.800000000000004,0)" xlink:href="#aO"/><use transform="matrix(0.05,0,0,0.05,57.800000000000004,0)" xlink:href="#bn"/><use transform="matrix(0.05,0,0,0.05,62.800000000000004,0)" xlink:href="#aI"/><use transform="matrix(0.05,0,0,0.05,77.75,0)" xlink:href="#aS"/><use transform="matrix(0.05,0,0,0.05,87.75,0)" xlink:href="#bh"/><use transform="matrix(0.05,0,0,0.05,97.75,0)" xlink:href="#aJ"/></g><g id="ab"><use transform="matrix(0.05,0,0,0.05,0,0)" xlink:href="#aQ"/><use transform="matrix(0.05,0,0,0.05,10,0)" xlink:href="#aK"/><use transform="matrix(0.05,0,0,0.05,15.949999999999998,0)" xlink:href="#aP"/><use transform="matrix(0.05,0,0,0.05,19.9,0)" xlink:href="#aU"/><use transform="matrix(0.05,0,0,0.05,28.899999999999995,0)" xlink:href="#aJ"/><use transform="matrix(0.05,0,0,0.05,38.9,0)" xlink:href="#aK"/><use transform="matrix(0.05,0,0,0.05,44.85,0)" xlink:href="#aO"/><use transform="matrix(0.05,0,0,0.05,54.85,0)" xlink:href="#aP"/><use transform="matrix(0.05,0,0,0.05,58.800000000000004,0)" xlink:href="#aQ"/></g><g id="ac"><use transform="matrix(0.05,0,0,0.05,0,0)" xlink:href="#aQ"/><use transform="matrix(0.05,0,0,0.05,10,0)" xlink:href="#aK"/><use transform="matrix(0.05,0,0,0.05,15.949999999999998,0)" xlink:href="#aP"/><use transform="matrix(0.05,0,0,0.05,19.9,0)" xlink:href="#aU"/><use transform="matrix(0.05,0,0,0.05,28.899999999999995,0)" xlink:href="#aJ"/><use transform="matrix(0.05,0,0,0.05,38.9,0)" xlink:href="#aK"/><use transform="matrix(0.05,0,0,0.05,44.85,0)" xlink:href="#aO"/><use transform="matrix(0.05,0,0,0.05,54.85,0)" xlink:href="#aT"/><use transform="matrix(0.05,0,0,0.05,58.800000000000004,0)" xlink:href="#aP"/><use transform="matrix(0.05,0,0,0.05,62.75,0)" xlink:href="#aN"/><use transform="matrix(0.05,0,0,0.05,71.75,0)" xlink:href="#aJ"/><use transform="matrix(0.05,0,0,0.05,81.75,0)" xlink:href="#aR"/><use transform="matrix(0.05,0,0,0.05,91.75,0)" xlink:href="#aN"/><use transform="matrix(0.05,0,0,0.05,100.75,0)" xlink:href="#aJ"/></g><g id="ad"><use transform="matrix(0.05,0,0,0.05,0,0)" xlink:href="#aT"/><use transform="matrix(0.05,0,0,0.05,3.95,0)" xlink:href="#aH"/><use transform="matrix(0.05,0,0,0.05,13.949999999999998,0)" xlink:href="#aR"/><use transform="matrix(0.05,0,0,0.05,23.95,0)" xlink:href="#bh"/><use transform="matrix(0.05,0,0,0.05,33.95,0)" xlink:href="#be"/><use transform="matrix(0.05,0,0,0.05,43.95,0)" xlink:href="#aT"/><use transform="matrix(0.05,0,0,0.05,47.900000000000006,0)" xlink:href="#aH"/><use transform="matrix(0.05,0,0,0.05,57.900000000000006,0)" xlink:href="#be"/></g><g id="ae"><use transform="matrix(0.05,0,0,0.05,0,0)" xlink:href="#aK"/><use transform="matrix(0.05,0,0,0.05,5.95,0)" xlink:href="#aJ"/><use transform="matrix(0.05,0,0,0.05,15.949999999999998,0)" xlink:href="#aU"/><use transform="matrix(0.05,0,0,0.05,24.95,0)" xlink:href="#aJ"/><use transform="matrix(0.05,0,0,0.05,34.95,0)" xlink:href="#aR"/><use transform="matrix(0.05,0,0,0.05,44.95,0)" xlink:href="#aE"/><use transform="matrix(0.05,0,0,0.05,54.95,0)" xlink:href="#aJ"/><use transform="matrix(0.05,0,0,0.05,64.95,0)" xlink:href="#aO"/><use transform="matrix(0.05,0,0,0.05,74.95,0)" xlink:href="#aT"/><use transform="matrix(0.05,0,0,0.05,78.9,0)" xlink:href="#aP"/><use transform="matrix(0.05,0,0,0.05,82.85000000000001,0)" xlink:href="#aN"/><use transform="matrix(0.05,0,0,0.05,91.85000000000001,0)" xlink:href="#aJ"/><use transform="matrix(0.05,0,0,0.05,101.85000000000001,0)" xlink:href="#aR"/><use transform="matrix(0.05,0,0,0.05,111.85000000000001,0)" xlink:href="#aN"/><use transform="matrix(0.05,0,0,0.05,120.85000000000001,0)" xlink:href="#aJ"/></g><g id="af"><use transform="matrix(0.05,0,0,0.05,0,0)" xlink:href="#aP"/><use transform="matrix(0.05,0,0,0.05,3.95,0)" xlink:href="#aR"/><use transform="matrix(0.05,0,0,0.05,13.949999999999998,0)" xlink:href="#aF"/><use transform="matrix(0.05,0,0,0.05,22.95,0)" xlink:href="#aE"/><use transform="matrix(0.05,0,0,0.05,32.95,0)" xlink:href="#aK"/><use transform="matrix(0.05,0,0,0.05,38.900000000000006,0)" xlink:href="#aS"/><use transform="matrix(0.05,0,0,0.05,48.900000000000006,0)" xlink:href="#aR"/><use transform="matrix(0.05,0,0,0.05,58.900000000000006,0)" xlink:href="#aN"/><use transform="matrix(0.05,0,0,0.05,67.9,0)" xlink:href="#aJ"/></g><g id="ag"><use transform="matrix(0.05,0,0,0.05,0,0)" xlink:href="#aQ"/><use transform="matrix(0.05,0,0,0.05,10,0)" xlink:href="#aK"/><use transform="matrix(0.05,0,0,0.05,15.949999999999998,0)" xlink:href="#aP"/><use transform="matrix(0.05,0,0,0.05,19.9,0)" xlink:href="#aU"/><use transform="matrix(0.05,0,0,0.05,28.899999999999995,0)" xlink:href="#aJ"/><use transform="matrix(0.05,0,0,0.05,38.9,0)" xlink:href="#aK"/><use transform="matrix(0.05,0,0,0.05,44.85,0)" xlink:href="#aO"/><use transform="matrix(0.05,0,0,0.05,54.85,0)" xlink:href="#aP"/><use transform="matrix(0.05,0,0,0.05,58.800000000000004,0)" xlink:href="#aI"/><use transform="matrix(0.05,0,0,0.05,73.75,0)" xlink:href="#aS"/><use transform="matrix(0.05,0,0,0.05,83.75,0)" xlink:href="#bh"/><use transform="matrix(0.05,0,0,0.05,93.75,0)" xlink:href="#aJ"/></g><g id="ah"><use transform="matrix(0.05,0,0,0.05,0,0)" xlink:href="#aT"/><use transform="matrix(0.05,0,0,0.05,3.95,0)" xlink:href="#aH"/><use transform="matrix(0.05,0,0,0.05,13.949999999999998,0)" xlink:href="#aR"/><use transform="matrix(0.05,0,0,0.05,23.95,0)" xlink:href="#bh"/><use transform="matrix(0.05,0,0,0.05,33.95,0)" xlink:href="#be"/><use transform="matrix(0.05,0,0,0.05,43.95,0)" xlink:href="#aT"/><use transform="matrix(0.05,0,0,0.05,47.900000000000006,0)" xlink:href="#aH"/><use transform="matrix(0.05,0,0,0.05,57.900000000000006,0)" xlink:href="#be"/></g><g id="ai"><use transform="matrix(0.05,0,0,0.05,0,0)" xlink:href="#aQ"/><use transform="matrix(0.05,0,0,0.05,10,0)" xlink:href="#aK"/><use transform="matrix(0.05,0,0,0.05,15.949999999999998,0)" xlink:href="#aP"/><use transform="matrix(0.05,0,0,0.05,19.9,0)" xlink:href="#aU"/><use transform="matrix(0.05,0,0,0.05,28.899999999999995,0)" xlink:href="#aJ"/><use transform="matrix(0.05,0,0,0.05,38.9,0)" xlink:href="#aK"/><use transform="matrix(0.05,0,0,0.05,44.85,0)" xlink:href="#aO"/><use transform="matrix(0.05,0,0,0.05,54.85,0)" xlink:href="#aN"/><use transform="matrix(0.05,0,0,0.05,63.85,0)" xlink:href="#aE"/><use transform="matrix(0.05,0,0,0.05,73.85,0)" xlink:href="#aK"/><use transform="matrix(0.05,0,0,0.05,79.8,0)" xlink:href="#aK"/><use transform="matrix(0.05,0,0,0.05,85.75,0)" xlink:href="#aJ"/><use transform="matrix(0.05,0,0,0.05,95.75,0)" xlink:href="#aR"/><use transform="matrix(0.05,0,0,0.05,105.75,0)" xlink:href="#aG"/><use transform="matrix(0.05,0,0,0.05,110.75,0)" xlink:href="#aO"/><use transform="matrix(0.05,0,0,0.05,120.75,0)" xlink:href="#aT"/><use transform="matrix(0.05,0,0,0.05,124.7,0)" xlink:href="#aH"/><use transform="matrix(0.05,0,0,0.05,134.7,0)" xlink:href="#aN"/><use transform="matrix(0.05,0,0,0.05,143.7,0)" xlink:href="#aS"/><use transform="matrix(0.05,0,0,0.05,153.7,0)" xlink:href="#aG"/><use transform="matrix(0.05,0,0,0.05,158.7,0)" xlink:href="#aP"/><use transform="matrix(0.05,0,0,0.05,162.64999999999998,0)" xlink:href="#aH"/><use transform="matrix(0.05,0,0,0.05,172.64999999999998,0)" xlink:href="#aR"/></g><g id="aj"><use transform="matrix(0.05,0,0,0.05,0,0)" xlink:href="#aT"/><use transform="matrix(0.05,0,0,0.05,3.95,0)" xlink:href="#aH"/><use transform="matrix(0.05,0,0,0.05,13.949999999999998,0)" xlink:href="#aR"/><use transform="matrix(0.05,0,0,0.05,23.95,0)" xlink:href="#bh"/><use transform="matrix(0.05,0,0,0.05,33.95,0)" xlink:href="#aP"/><use transform="matrix(0.05,0,0,0.05,37.900000000000006,0)" xlink:href="#aG"/><use transform="matrix(0.05,0,0,0.05,42.900000000000006,0)" xlink:href="#aE"/><use transform="matrix(0.05,0,0,0.05,52.900000000000006,0)" xlink:href="#aQ"/><use transform="matrix(0.05,0,0,0.05,62.900000000000006,0)" xlink:href="#aJ"/></g><g id="ak"><use transform="matrix(0.05,0,0,0.05,0,0)" xlink:href="#bd"/><use transform="matrix(0.05,0,0,0.05,5,0)" xlink:href="#aT"/><use transform="matrix(0.05,0,0,0.05,8.95,0)" xlink:href="#aH"/><use transform="matrix(0.05,0,0,0.05,18.95,0)" xlink:href="#aS"/><use transform="matrix(0.05,0,0,0.05,28.950000000000003,0)" xlink:href="#aG"/><use transform="matrix(0.05,0,0,0.05,33.95,0)" xlink:href="#aW"/><use transform="matrix(0.05,0,0,0.05,39.900000000000006,0)" xlink:href="#bg"/><use transform="matrix(0.05,0,0,0.05,49.900000000000006,0)" xlink:href="#aY"/><use transform="matrix(0.05,0,0,0.05,59.900000000000006,0)" xlink:href="#bl"/><use transform="matrix(0.05,0,0,0.05,64.9,0)" xlink:href="#bm"/><use transform="matrix(0.05,0,0,0.05,74.9,0)" xlink:href="#aZ"/></g><g id="al"><use transform="matrix(0.05,0,0,0.05,0,0)" xlink:href="#aT"/><use transform="matrix(0.05,0,0,0.05,3.95,0)" xlink:href="#aS"/><use transform="matrix(0.05,0,0,0.05,13.949999999999998,0)" xlink:href="#aG"/><use transform="matrix(0.05,0,0,0.05,18.95,0)" xlink:href="#aP"/><use transform="matrix(0.05,0,0,0.05,22.9,0)" xlink:href="#aG"/><use transform="matrix(0.05,0,0,0.05,27.899999999999995,0)" xlink:href="#aE"/><use transform="matrix(0.05,0,0,0.05,37.9,0)" xlink:href="#aQ"/><use transform="matrix(0.05,0,0,0.05,47.9,0)" xlink:href="#aJ"/></g><g id="am"><use transform="matrix(0.05,0,0,0.05,0,0)" xlink:href="#aE"/><use transform="matrix(0.05,0,0,0.05,10,0)" xlink:href="#ba"/><use transform="matrix(0.05,0,0,0.05,20,0)" xlink:href="#aQ"/><use transform="matrix(0.05,0,0,0.05,30,0)" xlink:href="#aS"/><use transform="matrix(0.05,0,0,0.05,40,0)" xlink:href="#aG"/><use transform="matrix(0.05,0,0,0.05,45,0)" xlink:href="#aJ"/><use transform="matrix(0.05,0,0,0.05,55,0)" xlink:href="#aO"/><use transform="matrix(0.05,0,0,0.05,65,0)" xlink:href="#aG"/><use transform="matrix(0.05,0,0,0.05,70,0)" xlink:href="#aP"/><use transform="matrix(0.05,0,0,0.05,73.95,0)" xlink:href="#aI"/><use transform="matrix(0.05,0,0,0.05,88.9,0)" xlink:href="#aJ"/></g><path d="M127-220V0H93v-220H8v-28h204v28h-85" id="bo"/><g id="an"><use transform="matrix(0.05,0,0,0.05,0,0)" xlink:href="#bo"/><use transform="matrix(0.05,0,0,0.05,9.950000000000001,0)" xlink:href="#bf"/><use transform="matrix(0.05,0,0,0.05,18.950000000000003,0)" xlink:href="#ba"/><use transform="matrix(0.05,0,0,0.05,28.950000000000003,0)" xlink:href="#aJ"/></g><g id="ao"><use transform="matrix(0.05,0,0,0.05,0,0)" xlink:href="#aN"/><use transform="matrix(0.05,0,0,0.05,9,0)" xlink:href="#aE"/><use transform="matrix(0.05,0,0,0.05,19,0)" xlink:href="#aF"/><use transform="matrix(0.05,0,0,0.05,28,0)" xlink:href="#aG"/><use transform="matrix(0.05,0,0,0.05,33,0)" xlink:href="#aH"/><use transform="matrix(0.05,0,0,0.05,43,0)" xlink:href="#aI"/><use transform="matrix(0.05,0,0,0.05,57.95,0)" xlink:href="#aJ"/><use transform="matrix(0.05,0,0,0.05,67.95,0)" xlink:href="#aK"/><use transform="matrix(0.05,0,0,0.05,73.9,0)" xlink:href="#aO"/><use transform="matrix(0.05,0,0,0.05,83.9,0)" xlink:href="#aN"/><use transform="matrix(0.05,0,0,0.05,92.9,0)" xlink:href="#aE"/><use transform="matrix(0.05,0,0,0.05,102.9,0)" xlink:href="#aK"/><use transform="matrix(0.05,0,0,0.05,108.85000000000001,0)" xlink:href="#aK"/><use transform="matrix(0.05,0,0,0.05,114.80000000000001,0)" xlink:href="#aJ"/><use transform="matrix(0.05,0,0,0.05,124.80000000000001,0)" xlink:href="#aR"/><use transform="matrix(0.05,0,0,0.05,134.8,0)" xlink:href="#aG"/><use transform="matrix(0.05,0,0,0.05,139.8,0)" xlink:href="#aO"/><use transform="matrix(0.05,0,0,0.05,149.8,0)" xlink:href="#aT"/><use transform="matrix(0.05,0,0,0.05,153.75,0)" xlink:href="#aH"/><use transform="matrix(0.05,0,0,0.05,163.75,0)" xlink:href="#aN"/><use transform="matrix(0.05,0,0,0.05,172.75,0)" xlink:href="#aS"/><use transform="matrix(0.05,0,0,0.05,182.75,0)" xlink:href="#aG"/><use transform="matrix(0.05,0,0,0.05,187.75,0)" xlink:href="#aP"/><use transform="matrix(0.05,0,0,0.05,191.7,0)" xlink:href="#aH"/><use transform="matrix(0.05,0,0,0.05,201.7,0)" xlink:href="#aR"/></g><g id="ap"><use transform="matrix(0.05,0,0,0.05,0,0)" xlink:href="#aQ"/><use transform="matrix(0.05,0,0,0.05,10,0)" xlink:href="#aS"/><use transform="matrix(0.05,0,0,0.05,20,0)" xlink:href="#aG"/><use transform="matrix(0.05,0,0,0.05,25,0)" xlink:href="#aJ"/></g><path d="M30 0v-248h187v28H63v79h144v27H63v87h162V0H30" id="bp"/><g id="aq"><use transform="matrix(0.05,0,0,0.05,0,0)" xlink:href="#bp"/><use transform="matrix(0.05,0,0,0.05,12,0)" xlink:href="#aI"/><use transform="matrix(0.05,0,0,0.05,26.950000000000003,0)" xlink:href="#ba"/><use transform="matrix(0.05,0,0,0.05,36.95,0)" xlink:href="#aT"/><use transform="matrix(0.05,0,0,0.05,40.900000000000006,0)" xlink:href="#aH"/><use transform="matrix(0.05,0,0,0.05,50.900000000000006,0)" xlink:href="#bf"/><use transform="matrix(0.05,0,0,0.05,59.900000000000006,0)" xlink:href="#aJ"/><use transform="matrix(0.05,0,0,0.05,69.9,0)" xlink:href="#aJ"/></g><g id="ar"><use transform="matrix(0.05,0,0,0.05,0,0)" xlink:href="#aJ"/><use transform="matrix(0.05,0,0,0.05,10,0)" xlink:href="#aI"/><use transform="matrix(0.05,0,0,0.05,24.950000000000003,0)" xlink:href="#ba"/><use transform="matrix(0.05,0,0,0.05,34.95,0)" xlink:href="#aT"/><use transform="matrix(0.05,0,0,0.05,38.900000000000006,0)" xlink:href="#aH"/><use transform="matrix(0.05,0,0,0.05,48.900000000000006,0)" xlink:href="#bf"/><use transform="matrix(0.05,0,0,0.05,57.900000000000006,0)" xlink:href="#aJ"/><use transform="matrix(0.05,0,0,0.05,67.9,0)" xlink:href="#aJ"/><use transform="matrix(0.05,0,0,0.05,77.9,0)" xlink:href="#aO"/><use transform="matrix(0.05,0,0,0.05,87.9,0)" xlink:href="#aP"/><use transform="matrix(0.05,0,0,0.05,91.85000000000001,0)" xlink:href="#aQ"/></g><g id="as"><use transform="matrix(0.05,0,0,0.05,0,0)" xlink:href="#aP"/><use transform="matrix(0.05,0,0,0.05,3.95,0)" xlink:href="#aF"/><use transform="matrix(0.05,0,0,0.05,12.949999999999998,0)" xlink:href="#aO"/><use transform="matrix(0.05,0,0,0.05,22.95,0)" xlink:href="#aS"/><use transform="matrix(0.05,0,0,0.05,32.95,0)" xlink:href="#aQ"/><use transform="matrix(0.05,0,0,0.05,42.95,0)" xlink:href="#aI"/><use transform="matrix(0.05,0,0,0.05,57.900000000000006,0)" xlink:href="#aP"/><use transform="matrix(0.05,0,0,0.05,61.85,0)" xlink:href="#aR"/></g><g id="at"><use transform="matrix(0.05,0,0,0.05,0,0)" xlink:href="#be"/><use transform="matrix(0.05,0,0,0.05,10,0)" xlink:href="#aH"/><use transform="matrix(0.05,0,0,0.05,20,0)" xlink:href="#aH"/><use transform="matrix(0.05,0,0,0.05,30,0)" xlink:href="#aT"/></g><g id="au"><use transform="matrix(0.05,0,0,0.05,0,0)" xlink:href="#be"/><use transform="matrix(0.05,0,0,0.05,10,0)" xlink:href="#aP"/><use transform="matrix(0.05,0,0,0.05,13.949999999999998,0)" xlink:href="#aK"/><use transform="matrix(0.05,0,0,0.05,19.9,0)" xlink:href="#aG"/><use transform="matrix(0.05,0,0,0.05,24.9,0)" xlink:href="#aV"/><use transform="matrix(0.05,0,0,0.05,34.9,0)" xlink:href="#aQ"/><use transform="matrix(0.05,0,0,0.05,44.9,0)" xlink:href="#aS"/><use transform="matrix(0.05,0,0,0.05,54.900000000000006,0)" xlink:href="#bf"/></g><g id="av"><use transform="matrix(0.05,0,0,0.05,0,0)" xlink:href="#aR"/><use transform="matrix(0.05,0,0,0.05,10,0)" xlink:href="#aP"/><use transform="matrix(0.05,0,0,0.05,13.949999999999998,0)" xlink:href="#aN"/></g><g id="aw"><use transform="matrix(0.05,0,0,0.05,0,0)" xlink:href="#aU"/><use transform="matrix(0.05,0,0,0.05,9,0)" xlink:href="#aS"/><use transform="matrix(0.05,0,0,0.05,19,0)" xlink:href="#aK"/><use transform="matrix(0.05,0,0,0.05,24.95,0)" xlink:href="#aN"/><use transform="matrix(0.05,0,0,0.05,33.95,0)" xlink:href="#aV"/><use transform="matrix(0.05,0,0,0.05,43.95,0)" xlink:href="#aS"/><use transform="matrix(0.05,0,0,0.05,53.95,0)" xlink:href="#aK"/><use transform="matrix(0.05,0,0,0.05,59.900000000000006,0)" xlink:href="#aW"/><use transform="matrix(0.05,0,0,0.05,65.85000000000001,0)" xlink:href="#bg"/><use transform="matrix(0.05,0,0,0.05,75.85000000000001,0)" xlink:href="#aY"/><use transform="matrix(0.05,0,0,0.05,85.85000000000001,0)" xlink:href="#aZ"/></g><path d="M143 0L79-87 56-68V0H24v-261h32v163l83-92h37l-77 82L181 0h-38" id="bq"/><g id="ax"><use transform="matrix(0.05,0,0,0.05,0,0)" xlink:href="#bj"/><use transform="matrix(0.05,0,0,0.05,10.950000000000001,0)" xlink:href="#aJ"/><use transform="matrix(0.05,0,0,0.05,20.950000000000003,0)" xlink:href="#aJ"/><use transform="matrix(0.05,0,0,0.05,30.950000000000003,0)" xlink:href="#aQ"/><use transform="matrix(0.05,0,0,0.05,40.95,0)" xlink:href="#be"/><use transform="matrix(0.05,0,0,0.05,50.95,0)" xlink:href="#aS"/><use transform="matrix(0.05,0,0,0.05,60.95,0)" xlink:href="#aN"/><use transform="matrix(0.05,0,0,0.05,69.95,0)" xlink:href="#bq"/></g><g id="ay"><use transform="matrix(0.05,0,0,0.05,0,0)" xlink:href="#bd"/><use transform="matrix(0.05,0,0,0.05,5,0)" xlink:href="#aJ"/><use transform="matrix(0.05,0,0,0.05,15,0)" xlink:href="#aJ"/><use transform="matrix(0.05,0,0,0.05,25,0)" xlink:href="#aQ"/><use transform="matrix(0.05,0,0,0.05,35,0)" xlink:href="#be"/><use transform="matrix(0.05,0,0,0.05,45,0)" xlink:href="#aS"/><use transform="matrix(0.05,0,0,0.05,55,0)" xlink:href="#aN"/><use transform="matrix(0.05,0,0,0.05,64,0)" xlink:href="#bq"/><use transform="matrix(0.05,0,0,0.05,73,0)" xlink:href="#aO"/><use transform="matrix(0.05,0,0,0.05,83,0)" xlink:href="#aP"/><use transform="matrix(0.05,0,0,0.05,86.95,0)" xlink:href="#aQ"/></g><g id="az"><use transform="matrix(0.05,0,0,0.05,0,0)" xlink:href="#bj"/><use transform="matrix(0.05,0,0,0.05,10.950000000000001,0)" xlink:href="#aM"/></g><g id="aA"><use transform="matrix(0.05,0,0,0.05,0,0)" xlink:href="#aV"/><use transform="matrix(0.05,0,0,0.05,10,0)" xlink:href="#aP"/><use transform="matrix(0.05,0,0,0.05,13.949999999999998,0)" xlink:href="#aK"/><use transform="matrix(0.05,0,0,0.05,19.9,0)" xlink:href="#aJ"/><use transform="matrix(0.05,0,0,0.05,29.899999999999995,0)" xlink:href="#aO"/><use transform="matrix(0.05,0,0,0.05,39.9,0)" xlink:href="#aP"/><use transform="matrix(0.05,0,0,0.05,43.85,0)" xlink:href="#aQ"/></g><g id="aB"><use transform="matrix(0.05,0,0,0.05,0,0)" xlink:href="#aQ"/><use transform="matrix(0.05,0,0,0.05,10,0)" xlink:href="#aJ"/><use transform="matrix(0.05,0,0,0.05,20,0)" xlink:href="#aF"/><use transform="matrix(0.05,0,0,0.05,29,0)" xlink:href="#aN"/><use transform="matrix(0.05,0,0,0.05,38,0)" xlink:href="#aK"/><use transform="matrix(0.05,0,0,0.05,43.95,0)" xlink:href="#aP"/><use transform="matrix(0.05,0,0,0.05,47.900000000000006,0)" xlink:href="#ba"/><use transform="matrix(0.05,0,0,0.05,57.900000000000006,0)" xlink:href="#aG"/><use transform="matrix(0.05,0,0,0.05,62.900000000000006,0)" xlink:href="#aP"/><use transform="matrix(0.05,0,0,0.05,66.85000000000001,0)" xlink:href="#aH"/><use transform="matrix(0.05,0,0,0.05,76.85000000000001,0)" xlink:href="#aR"/></g><g id="aC"><use transform="matrix(0.05,0,0,0.05,0,0)" xlink:href="#aU"/><use transform="matrix(0.05,0,0,0.05,9,0)" xlink:href="#aS"/><use transform="matrix(0.05,0,0,0.05,19,0)" xlink:href="#aK"/><use transform="matrix(0.05,0,0,0.05,24.95,0)" xlink:href="#aN"/><use transform="matrix(0.05,0,0,0.05,33.95,0)" xlink:href="#aV"/><use transform="matrix(0.05,0,0,0.05,43.95,0)" xlink:href="#aS"/><use transform="matrix(0.05,0,0,0.05,53.95,0)" xlink:href="#aK"/><use transform="matrix(0.05,0,0,0.05,59.900000000000006,0)" xlink:href="#aW"/><use transform="matrix(0.05,0,0,0.05,65.85000000000001,0)" xlink:href="#bc"/><use transform="matrix(0.05,0,0,0.05,75.85000000000001,0)" xlink:href="#aY"/><use transform="matrix(0.05,0,0,0.05,85.85000000000001,0)" xlink:href="#aY"/><use transform="matrix(0.05,0,0,0.05,95.85000000000001,0)" xlink:href="#aZ"/></g></defs></g></svg>